<svg width="70" height="70" viewBox="0 0 70 70" fill="none" xmlns="http://www.w3.org/2000/svg">
<path d="M0 15.1974C0 6.8041 6.80409 0 15.1974 0H54.2763C62.6696 0 69.4737 6.80409 69.4737 15.1974V54.2763C69.4737 62.6696 62.6696 69.4737 54.2763 69.4737H15.1974C6.8041 69.4737 0 62.6696 0 54.2763V15.1974Z" fill="#A6DCED"/>
<path d="M46.3166 36.1846C46.3166 43.4215 41.2508 47.0399 35.2297 49.1386C34.9145 49.2454 34.572 49.2403 34.26 49.1241C28.2245 47.0399 23.1587 43.4215 23.1587 36.1846V26.0531C23.1587 25.6692 23.3112 25.3011 23.5826 25.0296C23.8541 24.7582 24.2222 24.6057 24.6061 24.6057C27.5008 24.6057 31.1192 22.8689 33.6376 20.6689C33.9443 20.4069 34.3343 20.2629 34.7376 20.2629C35.1409 20.2629 35.531 20.4069 35.8376 20.6689C38.3705 22.8833 41.9745 24.6057 44.8692 24.6057C45.2531 24.6057 45.6212 24.7582 45.8927 25.0296C46.1641 25.3011 46.3166 25.6692 46.3166 26.0531V36.1846Z" stroke="#176781" stroke-width="2.89474" stroke-linecap="round" stroke-linejoin="round"/>
</svg>
