<svg width="53" height="53" viewBox="0 0 53 53" fill="none" xmlns="http://www.w3.org/2000/svg">
<path d="M10.8389 0.541992H41.1875C46.8743 0.541992 51.4844 5.15206 51.4844 10.8389V41.1875C51.4844 46.8743 46.8743 51.4844 41.1875 51.4844H10.8389C5.15206 51.4844 0.541992 46.8743 0.541992 41.1875V10.8389C0.541992 5.15206 5.15206 0.541992 10.8389 0.541992Z" fill="#E9F6FB"/>
<path d="M10.8389 0.541992H41.1875C46.8743 0.541992 51.4844 5.15206 51.4844 10.8389V41.1875C51.4844 46.8743 46.8743 51.4844 41.1875 51.4844H10.8389C5.15206 51.4844 0.541992 46.8743 0.541992 41.1875V10.8389C0.541992 5.15206 5.15206 0.541992 10.8389 0.541992Z" stroke="#1B7694" stroke-width="1.08388"/>
<path d="M26.0132 32.5167V18.4263" stroke="#1B7694" stroke-width="2.16776" stroke-linecap="round" stroke-linejoin="round"/>
<path d="M29.2645 27.0977C28.3267 26.8236 27.503 26.253 26.9168 25.4714C26.3306 24.6898 26.0135 23.7392 26.0129 22.7622C26.0123 23.7392 25.6951 24.6898 25.1089 25.4714C24.5227 26.253 23.699 26.8236 22.7612 27.0977" stroke="#1B7694" stroke-width="2.16776" stroke-linecap="round" stroke-linejoin="round"/>
<path d="M32.0806 20.0519C32.33 19.62 32.4767 19.1365 32.5094 18.6388C32.542 18.141 32.4597 17.6425 32.2689 17.1817C32.078 16.7209 31.7837 16.3101 31.4087 15.9813C31.0337 15.6524 30.5881 15.4142 30.1063 15.2851C29.6245 15.156 29.1195 15.1395 28.6303 15.2368C28.1411 15.3341 27.6809 15.5427 27.2852 15.8463C26.8895 16.1499 26.5689 16.5405 26.3483 16.9879C26.1278 17.4352 26.013 17.9273 26.0131 18.4261C26.0131 17.9273 25.8984 17.4352 25.6778 16.9879C25.4572 16.5405 25.1366 16.1499 24.7409 15.8463C24.3452 15.5427 23.885 15.3341 23.3958 15.2368C22.9066 15.1395 22.4016 15.156 21.9198 15.2851C21.438 15.4142 20.9924 15.6524 20.6174 15.9813C20.2424 16.3101 19.9481 16.7209 19.7572 17.1817C19.5664 17.6425 19.4841 18.141 19.5167 18.6388C19.5494 19.1365 19.6961 19.62 19.9455 20.0519" stroke="#1B7694" stroke-width="2.16776" stroke-linecap="round" stroke-linejoin="round"/>
<path d="M32.5132 18.561C33.1503 18.7248 33.7418 19.0315 34.2428 19.4577C34.7439 19.884 35.1413 20.4187 35.4052 21.0213C35.669 21.6239 35.7922 22.2786 35.7655 22.9359C35.7388 23.5932 35.5629 24.2358 35.2511 24.815" stroke="#1B7694" stroke-width="2.16776" stroke-linecap="round" stroke-linejoin="round"/>
<path d="M32.5161 32.5164C33.4705 32.5163 34.3982 32.2014 35.1553 31.6204C35.9124 31.0394 36.4567 30.2248 36.7037 29.303C36.9507 28.3811 36.8867 27.4035 36.5215 26.5218C36.1563 25.6401 35.5104 24.9035 34.6839 24.4263" stroke="#1B7694" stroke-width="2.16776" stroke-linecap="round" stroke-linejoin="round"/>
<path d="M34.6481 31.9556C34.7241 32.5433 34.6788 33.1403 34.5149 33.7099C34.3511 34.2794 34.0723 34.8093 33.6956 35.2668C33.319 35.7243 32.8526 36.0998 32.3251 36.37C31.7977 36.6402 31.2205 36.7994 30.6291 36.8377C30.0378 36.8761 29.4448 36.7928 28.8869 36.5931C28.329 36.3933 27.8179 36.0813 27.3853 35.6763C26.9527 35.2713 26.6077 34.7819 26.3717 34.2383C26.1356 33.6947 26.0135 33.1085 26.0128 32.5159C26.0122 33.1085 25.8901 33.6947 25.654 34.2383C25.418 34.7819 25.073 35.2713 24.6404 35.6763C24.2078 36.0813 23.6967 36.3933 23.1388 36.5931C22.5809 36.7928 21.9879 36.8761 21.3966 36.8377C20.8052 36.7994 20.228 36.6402 19.7006 36.37C19.1731 36.0998 18.7067 35.7243 18.3301 35.2668C17.9534 34.8093 17.6746 34.2794 17.5108 33.7099C17.3469 33.1403 17.3016 32.5433 17.3776 31.9556" stroke="#1B7694" stroke-width="2.16776" stroke-linecap="round" stroke-linejoin="round"/>
<path d="M19.5097 32.5164C18.5553 32.5163 17.6276 32.2014 16.8705 31.6204C16.1133 31.0394 15.5691 30.2248 15.3221 29.303C15.075 28.3811 15.1391 27.4035 15.5043 26.5218C15.8695 25.6401 16.5154 24.9035 17.3419 24.4263" stroke="#1B7694" stroke-width="2.16776" stroke-linecap="round" stroke-linejoin="round"/>
<path d="M19.5127 18.561C18.8756 18.7248 18.2841 19.0315 17.7831 19.4577C17.282 19.884 16.8846 20.4187 16.6207 21.0213C16.3569 21.6239 16.2337 22.2786 16.2604 22.9359C16.2871 23.5932 16.463 24.2358 16.7748 24.815" stroke="#1B7694" stroke-width="2.16776" stroke-linecap="round" stroke-linejoin="round"/>
</svg>
