<svg width="66" height="66" viewBox="0 0 66 66" fill="none" xmlns="http://www.w3.org/2000/svg">
<rect width="66" height="66" rx="33" fill="#E9F6FB"/>
<path d="M38.6693 45.75V42.9167C38.6693 41.4138 38.0722 39.9724 37.0095 38.9097C35.9468 37.847 34.5055 37.25 33.0026 37.25H24.5026C22.9997 37.25 21.5584 37.847 20.4957 38.9097C19.433 39.9724 18.8359 41.4138 18.8359 42.9167V45.75" stroke="#94A3B8" stroke-width="5.00347" stroke-linecap="round" stroke-linejoin="round"/>
<path d="M38.668 20.4297C39.8831 20.7447 40.9593 21.4543 41.7275 22.4471C42.4958 23.4399 42.9126 24.6597 42.9126 25.915C42.9126 27.1703 42.4958 28.3901 41.7275 29.3829C40.9593 30.3757 39.8831 31.0853 38.668 31.4004" stroke="#94A3B8" stroke-width="5.00347" stroke-linecap="round" stroke-linejoin="round"/>
<path d="M47.168 45.7533V42.92C47.167 41.6644 46.7491 40.4448 45.9799 39.4524C45.2107 38.4601 44.1337 37.7514 42.918 37.4375" stroke="#94A3B8" stroke-width="5.00347" stroke-linecap="round" stroke-linejoin="round"/>
<path d="M28.7526 31.5833C31.8822 31.5833 34.4193 29.0463 34.4193 25.9167C34.4193 22.7871 31.8822 20.25 28.7526 20.25C25.623 20.25 23.0859 22.7871 23.0859 25.9167C23.0859 29.0463 25.623 31.5833 28.7526 31.5833Z" stroke="#94A3B8" stroke-width="5.00347" stroke-linecap="round" stroke-linejoin="round"/>
</svg>
