<svg width="53" height="53" viewBox="0 0 53 53" fill="none" xmlns="http://www.w3.org/2000/svg">
<path d="M10.8389 0.541992H41.1875C46.8743 0.541992 51.4844 5.15206 51.4844 10.8389V41.1875C51.4844 46.8743 46.8743 51.4844 41.1875 51.4844H10.8389C5.15206 51.4844 0.541992 46.8743 0.541992 41.1875V10.8389C0.541992 5.15206 5.15206 0.541992 10.8389 0.541992Z" fill="#E9F6FB"/>
<path d="M10.8389 0.541992H41.1875C46.8743 0.541992 51.4844 5.15206 51.4844 10.8389V41.1875C51.4844 46.8743 46.8743 51.4844 41.1875 51.4844H10.8389C5.15206 51.4844 0.541992 46.8743 0.541992 41.1875V10.8389C0.541992 5.15206 5.15206 0.541992 10.8389 0.541992Z" stroke="#1B7694" stroke-width="1.08388"/>
<path d="M26.0134 20.5942V35.7686" stroke="#1B7694" stroke-width="2.16776" stroke-linecap="round" stroke-linejoin="round"/>
<path d="M16.2584 32.5165C15.971 32.5165 15.6953 32.4023 15.492 32.1991C15.2888 31.9958 15.1746 31.7201 15.1746 31.4326V17.3422C15.1746 17.0547 15.2888 16.779 15.492 16.5758C15.6953 16.3725 15.971 16.2583 16.2584 16.2583H21.6779C22.8277 16.2583 23.9305 16.7151 24.7435 17.5281C25.5566 18.3412 26.0134 19.444 26.0134 20.5938C26.0134 19.444 26.4702 18.3412 27.2832 17.5281C28.0963 16.7151 29.1991 16.2583 30.3489 16.2583H35.7683C36.0558 16.2583 36.3315 16.3725 36.5347 16.5758C36.738 16.779 36.8522 17.0547 36.8522 17.3422V31.4326C36.8522 31.7201 36.738 31.9958 36.5347 32.1991C36.3315 32.4023 36.0558 32.5165 35.7683 32.5165H29.265C28.4026 32.5165 27.5756 32.8591 26.9658 33.4689C26.356 34.0787 26.0134 34.9058 26.0134 35.7682C26.0134 34.9058 25.6708 34.0787 25.061 33.4689C24.4512 32.8591 23.6241 32.5165 22.7617 32.5165H16.2584Z" stroke="#1B7694" stroke-width="2.16776" stroke-linecap="round" stroke-linejoin="round"/>
</svg>
