<svg width="58" height="58" viewBox="0 0 58 58" fill="none" xmlns="http://www.w3.org/2000/svg">
<path d="M0 16.5C0 7.3873 7.3873 0 16.5 0H41.25C50.3627 0 57.75 7.3873 57.75 16.5V41.25C57.75 50.3627 50.3627 57.75 41.25 57.75H16.5C7.3873 57.75 0 50.3627 0 41.25V16.5Z" fill="#A6DCED"/>
<path d="M34.8867 16.8398H22.8555C21.5265 16.8398 20.4492 17.9172 20.4492 19.2461V38.4961C20.4492 39.825 21.5265 40.9023 22.8555 40.9023H34.8867C36.2157 40.9023 37.293 39.825 37.293 38.4961V19.2461C37.293 17.9172 36.2157 16.8398 34.8867 16.8398Z" stroke="#1B7694" stroke-width="2.40625" stroke-linecap="round" stroke-linejoin="round"/>
<path d="M28.875 36.0898H28.8878" stroke="#1B7694" stroke-width="2.40625" stroke-linecap="round" stroke-linejoin="round"/>
</svg>
