<svg width="66" height="66" viewBox="0 0 66 66" fill="none" xmlns="http://www.w3.org/2000/svg">
<rect width="66" height="66" rx="33" fill="#E9F6FB"/>
<g clip-path="url(#clip0_1_5175)">
<path d="M37.9239 34.2617L40.0702 46.3402C40.0942 46.4824 40.0743 46.6286 40.013 46.7592C39.9517 46.8898 39.852 46.9985 39.7273 47.0709C39.6025 47.1433 39.4586 47.1759 39.3148 47.1643C39.171 47.1527 39.0342 47.0975 38.9227 47.0061L33.851 43.1995C33.6062 43.0166 33.3088 42.9177 33.0031 42.9177C32.6975 42.9177 32.4001 43.0166 32.1553 43.1995L27.0751 47.0046C26.9636 47.0959 26.827 47.151 26.6834 47.1627C26.5398 47.1743 26.3961 47.1418 26.2714 47.0696C26.1467 46.9974 26.047 46.8889 25.9856 46.7586C25.9241 46.6283 25.9039 46.4823 25.9276 46.3402L28.0724 34.2617" stroke="#94A3B8" stroke-width="5.00347" stroke-linecap="round" stroke-linejoin="round"/>
<path d="M33 35.832C37.6944 35.832 41.5 32.0265 41.5 27.332C41.5 22.6376 37.6944 18.832 33 18.832C28.3056 18.832 24.5 22.6376 24.5 27.332C24.5 32.0265 28.3056 35.832 33 35.832Z" stroke="#94A3B8" stroke-width="5.00347" stroke-linecap="round" stroke-linejoin="round"/>
</g>
<defs>
<clipPath id="clip0_1_5175">
<rect width="34" height="34" fill="white" transform="translate(16 16)"/>
</clipPath>
</defs>
</svg>
