<svg width="52" height="52" viewBox="0 0 52 52" fill="none" xmlns="http://www.w3.org/2000/svg">
<rect width="51.3333" height="51.3333" rx="25.6667" fill="#F6E2FF"/>
<path d="M16.9259 23.3924C16.698 23.3924 16.4901 23.2077 16.5006 22.9663C16.562 21.5528 16.7338 20.6325 17.2153 19.9046C17.4923 19.4858 17.8364 19.1215 18.232 18.8283C19.3013 18.0356 20.8098 18.0356 23.8268 18.0356H27.507C30.524 18.0356 32.0325 18.0356 33.1018 18.8283C33.4974 19.1215 33.8415 19.4858 34.1185 19.9046C34.6 20.6325 34.7718 21.5526 34.8332 22.9659C34.8437 23.2076 34.6355 23.3924 34.4075 23.3924C33.1371 23.3924 32.1074 24.4826 32.1074 25.8273C32.1074 27.1721 33.1371 28.2622 34.4075 28.2622C34.6355 28.2622 34.8437 28.4471 34.8332 28.6888C34.7718 30.1021 34.6 31.0222 34.1185 31.7501C33.8415 32.1688 33.4974 32.5331 33.1018 32.8263C32.0325 33.619 30.524 33.619 27.507 33.619H23.8268C20.8098 33.619 19.3013 33.619 18.232 32.8263C17.8364 32.5331 17.4923 32.1688 17.2153 31.7501C16.7338 31.0221 16.562 30.1018 16.5006 28.6883C16.4901 28.4469 16.698 28.2622 16.9259 28.2622C18.1962 28.2622 19.226 27.1721 19.226 25.8273C19.226 24.4826 18.1962 23.3924 16.9259 23.3924Z" stroke="#AA16EF" stroke-width="1.375" stroke-linejoin="round"/>
<path d="M23.3752 28.119L27.9586 23.5356" stroke="#AA16EF" stroke-width="1.375" stroke-linecap="round" stroke-linejoin="round"/>
<path d="M23.3752 23.5356H23.3855M27.9483 28.119H27.9586" stroke="#AA16EF" stroke-width="1.83333" stroke-linecap="round" stroke-linejoin="round"/>
</svg>
