<svg width="66" height="66" viewBox="0 0 66 66" fill="none" xmlns="http://www.w3.org/2000/svg">
<rect width="66" height="66" rx="33" fill="#E9F6FB"/>
<path d="M23.082 23.0842C23.0819 22.5856 23.2133 22.0959 23.4629 21.6644C23.7126 21.2329 24.0717 20.8749 24.504 20.6265C24.9363 20.3782 25.4264 20.2483 25.925 20.25C26.4235 20.2517 26.9128 20.3849 27.3434 20.6362L44.3391 30.55C44.768 30.7989 45.1241 31.156 45.3718 31.5856C45.6194 32.0152 45.75 32.5023 45.7505 32.9982C45.7509 33.4941 45.6212 33.9814 45.3742 34.4115C45.1273 34.8415 44.7718 35.1992 44.3434 35.4488L27.3434 45.3655C26.9128 45.6168 26.4235 45.75 25.925 45.7517C25.4264 45.7534 24.9363 45.6235 24.504 45.3751C24.0717 45.1268 23.7126 44.7688 23.4629 44.3373C23.2133 43.9058 23.0819 43.416 23.082 42.9175V23.0842Z" stroke="#94A3B8" stroke-width="5.00347" stroke-linecap="round" stroke-linejoin="round"/>
</svg>
