<svg width="71" height="71" viewBox="0 0 71 71" fill="none" xmlns="http://www.w3.org/2000/svg">
<path d="M0 17.5122C0 7.84047 7.84046 0 17.5122 0H52.5365C62.2082 0 70.0486 7.84046 70.0486 17.5122V52.5365C70.0486 62.2082 62.2082 70.0486 52.5365 70.0486H17.5122C7.84047 70.0486 0 62.2082 0 52.5365V17.5122Z" fill="#A6DCED"/>
<path d="M35.0197 49.6171C31.1493 49.6171 27.4374 48.0796 24.7006 45.3428C21.9638 42.606 20.4263 38.8941 20.4263 35.0236C20.4263 31.1532 21.9638 27.4413 24.7006 24.7045C27.4374 21.9677 31.1493 20.4302 35.0197 20.4302C38.8902 20.4302 42.6021 21.8139 45.3389 24.2771C48.0757 26.7402 49.6132 30.0809 49.6132 33.5643C49.6132 35.4995 48.8444 37.3555 47.476 38.7239C46.1076 40.0923 44.2517 40.861 42.3165 40.861H39.0329C38.5587 40.861 38.0937 40.9931 37.6903 41.2424C37.2868 41.4918 36.9608 41.8486 36.7487 42.2728C36.5366 42.697 36.4468 43.1719 36.4894 43.6442C36.532 44.1166 36.7053 44.5678 36.9899 44.9472L37.4277 45.5309C37.7122 45.9104 37.8855 46.3615 37.9281 46.8339C37.9707 47.3063 37.8809 47.7812 37.6688 48.2054C37.4567 48.6296 37.1307 48.9863 36.7272 49.2357C36.3238 49.485 35.8589 49.6171 35.3846 49.6171H35.0197Z" stroke="#64748B" stroke-width="2.91869" stroke-linecap="round" stroke-linejoin="round"/>
<path d="M37.2145 27.7255C37.6175 27.7255 37.9442 27.3988 37.9442 26.9958C37.9442 26.5928 37.6175 26.2661 37.2145 26.2661C36.8115 26.2661 36.4849 26.5928 36.4849 26.9958C36.4849 27.3988 36.8115 27.7255 37.2145 27.7255Z" fill="#64748B" stroke="#64748B" stroke-width="2.91869" stroke-linecap="round" stroke-linejoin="round"/>
<path d="M43.0466 33.5653C43.4496 33.5653 43.7762 33.2386 43.7762 32.8356C43.7762 32.4326 43.4496 32.106 43.0466 32.106C42.6436 32.106 42.3169 32.4326 42.3169 32.8356C42.3169 33.2386 42.6436 33.5653 43.0466 33.5653Z" fill="#64748B" stroke="#64748B" stroke-width="2.91869" stroke-linecap="round" stroke-linejoin="round"/>
<path d="M26.9958 36.4833C27.3988 36.4833 27.7255 36.1566 27.7255 35.7536C27.7255 35.3506 27.3988 35.0239 26.9958 35.0239C26.5928 35.0239 26.2661 35.3506 26.2661 35.7536C26.2661 36.1566 26.5928 36.4833 26.9958 36.4833Z" fill="#64748B" stroke="#64748B" stroke-width="2.91869" stroke-linecap="round" stroke-linejoin="round"/>
<path d="M29.9138 29.1864C30.3167 29.1864 30.6434 28.8597 30.6434 28.4567C30.6434 28.0537 30.3167 27.7271 29.9138 27.7271C29.5108 27.7271 29.1841 28.0537 29.1841 28.4567C29.1841 28.8597 29.5108 29.1864 29.9138 29.1864Z" fill="#64748B" stroke="#64748B" stroke-width="2.91869" stroke-linecap="round" stroke-linejoin="round"/>
</svg>
