<svg width="58" height="58" viewBox="0 0 58 58" fill="none" xmlns="http://www.w3.org/2000/svg">
<path d="M0 16.5C0 7.3873 7.3873 0 16.5 0H41.25C50.3627 0 57.75 7.3873 57.75 16.5V41.25C57.75 50.3627 50.3627 57.75 41.25 57.75H16.5C7.3873 57.75 0 50.3627 0 41.25V16.5Z" fill="#A6DCED"/>
<path d="M31.8828 22.8555L25.8672 28.8711" stroke="#1B7694" stroke-width="2.40625" stroke-linecap="round" stroke-linejoin="round"/>
<path d="M19.2539 37.8945V19.8477C19.2539 19.0499 19.5708 18.2849 20.1349 17.7208C20.6989 17.1567 21.464 16.8398 22.2617 16.8398H37.3008C37.6199 16.8398 37.9259 16.9666 38.1515 17.1922C38.3771 17.4179 38.5039 17.7239 38.5039 18.043V39.6992C38.5039 40.0183 38.3771 40.3243 38.1515 40.55C37.9259 40.7756 37.6199 40.9023 37.3008 40.9023H22.2617C21.464 40.9023 20.6989 40.5855 20.1349 40.0214C19.5708 39.4573 19.2539 38.6923 19.2539 37.8945ZM19.2539 37.8945C19.2539 37.0968 19.5708 36.3318 20.1349 35.7677C20.6989 35.2036 21.464 34.8867 22.2617 34.8867H38.5039" stroke="#1B7694" stroke-width="2.40625" stroke-linecap="round" stroke-linejoin="round"/>
<path d="M25.8672 22.8555L31.8828 28.8711" stroke="#1B7694" stroke-width="2.40625" stroke-linecap="round" stroke-linejoin="round"/>
</svg>
