<svg width="54" height="54" viewBox="0 0 54 54" fill="none" xmlns="http://www.w3.org/2000/svg">
<rect width="53.3333" height="53.3333" rx="26.6667" fill="#FFEED2"/>
<path d="M30.6667 27.666L35.8897 31.148C35.965 31.1981 36.0525 31.2269 36.1429 31.2312C36.2332 31.2355 36.323 31.2153 36.4027 31.1726C36.4825 31.1299 36.5491 31.0664 36.5956 30.9888C36.6421 30.9112 36.6667 30.8225 36.6667 30.732V22.536C36.6668 22.4481 36.6436 22.3616 36.5995 22.2855C36.5555 22.2093 36.4921 22.1462 36.4158 22.1023C36.3395 22.0585 36.253 22.0356 36.1651 22.0359C36.0771 22.0362 35.9907 22.0597 35.9147 22.104L30.6667 25.166" stroke="#176781" stroke-width="2" stroke-linecap="round" stroke-linejoin="round"/>
<path d="M28.6667 20.6667H18.6667C17.5622 20.6667 16.6667 21.5622 16.6667 22.6667V30.6667C16.6667 31.7713 17.5622 32.6667 18.6667 32.6667H28.6667C29.7713 32.6667 30.6667 31.7713 30.6667 30.6667V22.6667C30.6667 21.5622 29.7713 20.6667 28.6667 20.6667Z" stroke="#176781" stroke-width="2" stroke-linecap="round" stroke-linejoin="round"/>
</svg>
