<svg width="58" height="58" viewBox="0 0 58 58" fill="none" xmlns="http://www.w3.org/2000/svg">
<path d="M0 16.5C0 7.3873 7.3873 0 16.5 0H41.25C50.3627 0 57.75 7.3873 57.75 16.5V41.25C57.75 50.3627 50.3627 57.75 41.25 57.75H16.5C7.3873 57.75 0 50.3627 0 41.25V16.5Z" fill="#A6DCED"/>
<path d="M33.6836 39.7031V37.2969C33.6836 36.0205 33.1766 34.7964 32.274 33.8939C31.3715 32.9914 30.1474 32.4844 28.8711 32.4844H21.6523C20.376 32.4844 19.1519 32.9914 18.2494 33.8939C17.3469 34.7964 16.8398 36.0205 16.8398 37.2969V39.7031" stroke="#1B7694" stroke-width="2.40625" stroke-linecap="round" stroke-linejoin="round"/>
<path d="M25.2617 27.6719C27.9196 27.6719 30.0742 25.5172 30.0742 22.8594C30.0742 20.2015 27.9196 18.0469 25.2617 18.0469C22.6038 18.0469 20.4492 20.2015 20.4492 22.8594C20.4492 25.5172 22.6038 27.6719 25.2617 27.6719Z" stroke="#1B7694" stroke-width="2.40625" stroke-linecap="round" stroke-linejoin="round"/>
<path d="M34.8906 24.0586L40.9062 30.0742" stroke="#1B7694" stroke-width="2.40625" stroke-linecap="round" stroke-linejoin="round"/>
<path d="M40.9062 24.0586L34.8906 30.0742" stroke="#1B7694" stroke-width="2.40625" stroke-linecap="round" stroke-linejoin="round"/>
</svg>
