<svg width="53" height="53" viewBox="0 0 53 53" fill="none" xmlns="http://www.w3.org/2000/svg">
<path d="M10.8389 0.541992H41.1875C46.8743 0.541992 51.4844 5.15206 51.4844 10.8389V41.1875C51.4844 46.8743 46.8743 51.4844 41.1875 51.4844H10.8389C5.15206 51.4844 0.541992 46.8743 0.541992 41.1875V10.8389C0.541992 5.15206 5.15206 0.541992 10.8389 0.541992Z" fill="#E9F6FB"/>
<path d="M10.8389 0.541992H41.1875C46.8743 0.541992 51.4844 5.15206 51.4844 10.8389V41.1875C51.4844 46.8743 46.8743 51.4844 41.1875 51.4844H10.8389C5.15206 51.4844 0.541992 46.8743 0.541992 41.1875V10.8389C0.541992 5.15206 5.15206 0.541992 10.8389 0.541992Z" stroke="#1B7694" stroke-width="1.08388"/>
<path d="M30.3481 27.097L36.0093 30.8711C36.0909 30.9254 36.1857 30.9566 36.2836 30.9613C36.3815 30.9659 36.4789 30.944 36.5653 30.8977C36.6517 30.8514 36.724 30.7826 36.7744 30.6985C36.8247 30.6144 36.8514 30.5183 36.8514 30.4202V21.5367C36.8515 21.4414 36.8263 21.3477 36.7786 21.2652C36.7308 21.1826 36.6621 21.1141 36.5794 21.0666C36.4968 21.0191 36.403 20.9943 36.3077 20.9946C36.2123 20.995 36.1187 21.0204 36.0364 21.0685L30.3481 24.3873" stroke="#1B7694" stroke-width="2.16776" stroke-linecap="round" stroke-linejoin="round"/>
<path d="M28.1804 19.5103H17.3416C16.1444 19.5103 15.1738 20.4808 15.1738 21.678V30.3491C15.1738 31.5463 16.1444 32.5168 17.3416 32.5168H28.1804C29.3776 32.5168 30.3482 31.5463 30.3482 30.3491V21.678C30.3482 20.4808 29.3776 19.5103 28.1804 19.5103Z" stroke="#1B7694" stroke-width="2.16776" stroke-linecap="round" stroke-linejoin="round"/>
</svg>
