<svg width="18" height="18" viewBox="0 0 18 18" fill="none" xmlns="http://www.w3.org/2000/svg">
<path d="M14.9995 7.49805C14.9995 11.2428 10.8453 15.1428 9.45026 16.3473C9.32031 16.445 9.16211 16.4979 8.99951 16.4979C8.83691 16.4979 8.67872 16.445 8.54876 16.3473C7.15376 15.1428 2.99951 11.2428 2.99951 7.49805C2.99951 5.90675 3.63165 4.38062 4.75687 3.25541C5.88209 2.13019 7.40821 1.49805 8.99951 1.49805C10.5908 1.49805 12.1169 2.13019 13.2422 3.25541C14.3674 4.38062 14.9995 5.90675 14.9995 7.49805Z" stroke="#343A3F" stroke-width="1.5" stroke-linecap="round" stroke-linejoin="round"/>
<path d="M9 9.75195C10.2426 9.75195 11.25 8.74459 11.25 7.50195C11.25 6.25931 10.2426 5.25195 9 5.25195C7.75736 5.25195 6.75 6.25931 6.75 7.50195C6.75 8.74459 7.75736 9.75195 9 9.75195Z" stroke="#343A3F" stroke-width="1.5" stroke-linecap="round" stroke-linejoin="round"/>
</svg>
