<svg width="823" height="924" viewBox="0 0 823 924" fill="none" xmlns="http://www.w3.org/2000/svg">
<path d="M582.089 280.221L510.859 210.596L364.579 360.246L435.808 429.871L582.089 280.221Z" fill="#E7ECF2"/>
<path d="M535.773 232.624L445.03 191.536L385.809 322.325L476.551 363.413L535.773 232.624Z" fill="#E7ECF2"/>
<path d="M567.26 248.562L487.385 189.057L424.447 273.539L504.322 333.045L567.26 248.562Z" fill="#E7ECF2"/>
<path d="M559.921 258.554L488.691 188.929L342.411 338.578L413.64 408.204L559.921 258.554Z" fill="#C776EA"/>
<path d="M488.704 190.813L558.046 258.597L413.602 406.358L344.261 338.573L488.704 190.813ZM488.683 188.947L342.395 338.594L413.623 408.223L559.911 258.576L488.683 188.947Z" fill="#292929"/>
<path d="M451.142 328.086C443.389 328.086 436.082 325.109 430.529 319.681C424.894 314.172 421.741 306.799 421.651 298.92C421.562 291.04 424.546 283.597 430.055 277.962C435.563 272.327 442.936 269.175 450.816 269.085C458.685 269.005 466.138 271.98 471.773 277.488C477.408 282.997 480.561 290.37 480.651 298.249C480.74 306.129 477.756 313.572 472.247 319.207C466.739 324.842 459.366 327.994 451.486 328.084C451.372 328.085 451.256 328.086 451.142 328.086ZM451.16 270.402C451.05 270.402 450.941 270.403 450.831 270.404C443.304 270.489 436.26 273.501 430.998 278.884C425.736 284.267 422.885 291.377 422.971 298.904C423.056 306.432 426.068 313.475 431.451 318.737C436.833 323.999 443.934 326.857 451.47 326.765C458.998 326.679 466.041 323.668 471.304 318.285C476.566 312.901 479.417 305.792 479.331 298.264C479.246 290.737 476.234 283.694 470.851 278.431C465.547 273.246 458.565 270.402 451.16 270.402Z" fill="white"/>
<path d="M455.797 303.551C457.131 309.24 452.342 313.623 446.73 311.948C445.726 311.649 444.697 311.231 443.856 310.621C443.028 310.022 442.542 310.128 441.945 310.826C441.511 311.332 440.992 311.766 440.465 312.277C439.279 311.056 438.195 309.941 437.132 308.844C437.184 308.704 437.189 308.589 437.246 308.553C439.486 307.113 439.448 305.37 438.119 303.282C437.637 302.526 437.532 301.519 437.315 300.609C437.176 300.036 437.146 299.439 437.077 298.9C438.83 298.906 440.52 298.912 441.916 298.915C442.725 300.805 443.366 302.648 444.3 304.327C444.738 305.113 445.661 305.748 446.505 306.167C448.568 307.186 450.519 305.821 450.024 303.596C449.596 301.674 448.615 299.88 447.965 298C447.344 296.198 446.545 294.395 446.333 292.532C445.723 287.191 450.833 283.392 455.851 285.342C456.749 285.691 457.526 286.345 458.41 286.74C458.76 286.896 459.371 286.897 459.656 286.687C460.367 286.162 460.957 285.479 461.701 284.756C462.892 285.983 463.955 287.076 465.159 288.318C464.505 288.95 463.905 289.598 463.239 290.162C462.617 290.687 462.598 291.104 462.938 291.886C463.776 293.816 464.402 295.838 465.185 298.025C463.171 298.16 461.53 298.27 460.083 298.368C459.285 296.494 458.591 294.69 457.74 292.962C457.44 292.353 456.803 291.874 456.245 291.431C455.301 290.676 454.222 290.478 453.157 291.152C452.079 291.835 451.827 292.959 452.137 294.087C452.503 295.426 453.069 296.712 453.586 298.009C454.32 299.86 455.349 301.637 455.797 303.551Z" fill="white"/>
<path d="M428.217 381.795C428.18 381.795 428.143 381.792 428.106 381.785C427.893 381.749 427.711 381.61 427.62 381.414C426.874 379.815 423.973 374.45 417.927 372.567C411.348 370.517 403.847 373.3 399.263 379.492C399.149 379.645 398.975 379.742 398.785 379.757C398.597 379.775 398.408 379.704 398.272 379.571L371.561 353.46C371.433 353.335 371.362 353.164 371.363 352.986C371.363 352.807 371.436 352.637 371.564 352.513C372.99 351.141 377.614 346.068 377.292 338.386C376.912 329.295 369.788 324.278 368.977 323.736C368.814 323.627 368.708 323.451 368.687 323.255C368.667 323.06 368.735 322.866 368.872 322.726L473.787 215.401C473.917 215.269 474.107 215.2 474.279 215.203C474.464 215.209 474.637 215.292 474.758 215.431C475.857 216.705 481.81 223.026 490.894 222.465C496.768 222.102 500.886 219.061 502.817 217.28C503.075 217.042 503.474 217.048 503.725 217.293L530.405 243.374C530.647 243.611 530.671 243.992 530.46 244.257C528.748 246.408 526.61 249.954 526.151 254.628C525.141 264.892 533.171 271.986 534.09 272.761C534.23 272.88 534.315 273.051 534.323 273.234C534.333 273.417 534.264 273.596 534.136 273.727L428.688 381.596C428.564 381.725 428.393 381.795 428.217 381.795ZM413.512 370.582C415.133 370.582 416.749 370.818 418.319 371.308C424.043 373.091 427.156 377.718 428.391 380.014L532.71 273.3C530.599 271.347 523.875 264.295 524.838 254.5C525.297 249.834 527.313 246.229 529.063 243.908L503.244 218.669C501.026 220.591 496.817 223.422 490.976 223.783C482.186 224.325 476.183 218.881 474.241 216.826L370.351 323.101C372.421 324.675 378.255 329.844 378.61 338.333C378.924 345.837 374.839 351.013 372.958 352.983L398.662 378.109C402.487 373.304 408.016 370.582 413.512 370.582Z" fill="#292929"/>
<path d="M575.117 273.644L428.983 423.102L429.926 424.024L576.06 274.566L575.117 273.644Z" fill="white"/>
<path d="M566.892 265.594L420.758 415.052L421.701 415.974L567.835 266.516L566.892 265.594Z" fill="white"/>
<path d="M419.196 752.991H149.816C135.22 752.991 123.387 741.158 123.387 726.562V197.685C123.387 183.088 135.22 171.256 149.816 171.256H419.197C433.793 171.256 445.626 183.088 445.626 197.685V726.562C445.625 741.158 433.793 752.991 419.196 752.991Z" fill="white"/>
<path d="M419.197 753.65H149.816C134.88 753.65 122.728 741.499 122.728 726.562V197.685C122.728 182.748 134.88 170.596 149.816 170.596H419.197C434.134 170.596 446.285 182.748 446.285 197.685V726.562C446.285 741.499 434.134 753.65 419.197 753.65ZM149.816 171.915C135.607 171.915 124.047 183.476 124.047 197.685V726.562C124.047 740.771 135.607 752.332 149.816 752.332H419.197C433.406 752.332 444.966 740.772 444.966 726.562V197.685C444.966 183.476 433.406 171.915 419.197 171.915H149.816Z" fill="#292929"/>
<path d="M409.351 737.139H159.663C148.932 737.139 140.202 728.409 140.202 717.679V206.567C140.202 195.836 148.932 187.107 159.663 187.107H409.351C420.082 187.107 428.812 195.836 428.812 206.567V717.679C428.812 728.409 420.082 737.139 409.351 737.139ZM159.663 188.426C149.66 188.426 141.522 196.564 141.522 206.567V717.679C141.522 727.682 149.66 735.82 159.663 735.82H409.351C419.355 735.82 427.493 727.682 427.493 717.679V206.567C427.493 196.564 419.354 188.426 409.351 188.426H159.663Z" fill="#292929"/>
<path d="M316.906 206.731H244.593V208.05H316.906V206.731Z" fill="#292929"/>
<path d="M727.484 567.335C705.383 567.335 684.597 561.6 668.953 551.187C653.226 540.719 644.565 526.774 644.565 511.921C644.565 497.068 653.226 483.123 668.953 472.656C684.597 462.242 705.384 456.508 727.484 456.508C749.585 456.508 770.372 462.243 786.016 472.656C801.742 483.123 810.403 497.068 810.403 511.921C810.403 526.774 801.742 540.719 786.016 551.187C770.372 561.6 749.585 567.335 727.484 567.335ZM727.484 457.827C682.49 457.827 645.885 482.094 645.885 511.921C645.885 541.749 682.49 566.016 727.484 566.016C772.479 566.016 809.084 541.749 809.084 511.921C809.084 482.094 772.479 457.827 727.484 457.827Z" fill="#292929"/>
<path d="M598.645 340.467C591.321 332.088 586.064 323.46 588.763 317.542C594.374 305.238 636.195 300.646 648.448 322.285C654.608 333.163 652.083 348.527 643.31 361.416C639.615 348.063 629.532 338.263 617.618 336.514C608.742 335.212 601.573 338.776 598.645 340.467Z" fill="#292929"/>
<path d="M619.989 369.082L617.223 403.314C619.5 404.711 626.255 408.443 635.405 407.662C646.421 406.722 653.164 399.899 654.773 398.176C652.007 391.998 649.251 384.865 646.868 376.832C643.699 366.154 641.925 356.364 640.939 347.978C633.955 355.012 626.973 362.047 619.989 369.082Z" fill="white"/>
<path d="M632.919 408.428C625.496 408.428 619.781 405.654 616.88 403.876C616.668 403.746 616.547 403.508 616.567 403.26L619.334 369.028C619.347 368.873 619.414 368.727 619.524 368.616L640.473 347.512C640.651 347.332 640.917 347.271 641.156 347.353C641.396 347.436 641.567 347.648 641.596 347.9C642.739 357.615 644.726 367.286 647.503 376.643C649.646 383.867 652.295 391.021 655.378 397.906C655.486 398.148 655.439 398.432 655.258 398.626C652.815 401.241 645.997 407.42 635.464 408.319C634.595 408.393 633.746 408.428 632.919 408.428ZM617.915 402.96C621.12 404.859 627.372 407.686 635.351 407.004C645.026 406.178 651.428 400.693 653.993 398.041C650.964 391.227 648.356 384.157 646.237 377.019C643.568 368.023 641.624 358.741 640.45 349.407L620.63 369.374L617.915 402.96Z" fill="#292929"/>
<path d="M533.823 717.352C534.938 720.355 538.342 730.669 533.823 741.859C531.816 746.827 528.906 750.335 526.708 752.531C493.11 752.531 459.513 752.531 425.915 752.531C424.714 751.287 423.164 749.284 422.753 746.602C421.868 740.829 426.875 735.935 433.425 729.21C437.631 724.892 444.146 718.101 452.398 709.052C479.54 711.818 506.681 714.585 533.823 717.352Z" fill="white"/>
<path d="M526.707 753.19H425.914C425.735 753.19 425.564 753.117 425.44 752.989C423.566 751.049 422.442 748.934 422.1 746.701C421.195 740.803 426.085 735.79 432.276 729.443L432.952 728.75C439.099 722.438 445.477 715.661 451.909 708.607C452.05 708.452 452.256 708.374 452.464 708.395L533.888 716.696C534.138 716.721 534.352 716.887 534.44 717.122C536.244 721.979 538.643 731.683 534.433 742.105C532.797 746.155 530.355 749.819 527.173 752.997C527.049 753.12 526.882 753.19 526.707 753.19ZM426.198 751.871H526.432C529.394 748.864 531.674 745.414 533.21 741.612C537.145 731.868 535.06 722.758 533.344 717.966L452.661 709.742C446.294 716.718 439.983 723.421 433.897 729.67L433.221 730.364C427.055 736.686 422.6 741.254 423.404 746.501C423.693 748.383 424.632 750.189 426.198 751.871Z" fill="#292929"/>
<path d="M383.227 644.822L383.117 644.91L355.691 666.907C351.343 670.395 352.768 677.34 358.138 678.833L450.422 704.506L462.28 677.233L383.227 644.822Z" fill="white"/>
<path d="M450.421 705.165C450.362 705.165 450.302 705.157 450.244 705.141L357.96 679.468C355.236 678.71 353.191 676.519 352.623 673.749C352.055 670.98 353.072 668.161 355.277 666.392L382.813 644.306C383 644.155 383.254 644.12 383.476 644.21L462.529 676.622C462.693 676.689 462.823 676.819 462.89 676.984C462.956 677.148 462.954 677.332 462.883 677.495L451.025 704.768C450.919 705.014 450.678 705.165 450.421 705.165ZM383.335 645.579L356.103 667.421C354.258 668.901 353.44 671.168 353.915 673.484C354.391 675.802 356.035 677.563 358.313 678.197L450.044 703.716L461.405 677.587L383.335 645.579Z" fill="#292929"/>
<path d="M563.269 746.471C563.175 746.471 563.079 746.451 562.989 746.408C562.659 746.253 562.518 745.86 562.673 745.53L623.148 617.069C623.303 616.74 623.696 616.599 624.026 616.753C624.355 616.909 624.497 617.301 624.342 617.631L563.867 746.092C563.754 746.331 563.517 746.471 563.269 746.471Z" fill="#292929"/>
<path d="M813.079 746.471C812.831 746.471 812.594 746.331 812.482 746.092L752.006 617.631C751.851 617.302 751.993 616.909 752.322 616.753C752.651 616.599 753.045 616.74 753.2 617.069L813.676 745.531C813.831 745.86 813.689 746.253 813.359 746.408C813.269 746.451 813.173 746.471 813.079 746.471Z" fill="#292929"/>
<path d="M563.467 752.531C566.632 752.531 569.198 749.965 569.198 746.8C569.198 743.635 566.632 741.069 563.467 741.069C560.301 741.069 557.735 743.635 557.735 746.8C557.735 749.965 560.301 752.531 563.467 752.531Z" fill="#292929"/>
<path d="M812.878 752.531C816.043 752.531 818.61 749.965 818.61 746.8C818.61 743.635 816.043 741.069 812.878 741.069C809.713 741.069 807.147 743.635 807.147 746.8C807.147 749.965 809.713 752.531 812.878 752.531Z" fill="#292929"/>
<path d="M661.476 633.833C749.865 632.331 820.874 593.274 820.081 546.598C819.287 499.922 746.991 463.302 658.603 464.805C570.214 466.308 499.205 505.364 499.998 552.04C500.792 598.716 573.088 635.336 661.476 633.833Z" fill="white"/>
<path d="M656.17 634.475C615.292 634.475 576.912 626.389 547.583 611.535C516.856 595.973 499.719 574.829 499.33 552C498.941 529.17 515.347 507.454 545.526 490.853C575.573 474.325 615.72 464.821 658.572 464.09C701.425 463.363 741.872 471.49 772.464 486.984C803.192 502.547 820.328 523.69 820.718 546.52C821.107 569.35 804.701 591.065 774.522 607.666C744.475 624.195 704.328 633.699 661.476 634.43C659.705 634.46 657.932 634.475 656.17 634.475ZM663.879 465.364C662.121 465.364 660.361 465.379 658.594 465.41C570.714 466.908 499.861 505.742 500.649 551.978C501.029 574.295 517.909 595.028 548.179 610.359C578.584 625.758 618.819 633.835 661.454 633.111C749.333 631.613 820.186 592.778 819.398 546.543C819.018 524.226 802.138 503.492 771.868 488.161C742.724 473.401 704.549 465.364 663.879 465.364Z" fill="#292929"/>
<path d="M704.862 479.79C690.537 476.433 676.212 473.076 661.887 469.719C662.575 473.194 663.033 477.49 662.678 482.367C661.682 496.024 654.924 505.743 651.393 510.123C672.472 518.006 693.551 525.889 714.63 533.773C718.996 533.999 725.077 533.596 730.663 530.194C752.184 517.091 744.688 472.681 742.917 462.209C739.351 441.13 735.07 415.818 712.086 399.362C686.938 381.356 657.542 386.942 651.215 388.294C650.289 389.425 644.166 396.651 633.824 396.99C625.268 397.271 619.439 392.655 618.013 391.457C602.224 389.238 590.764 392.348 584.02 395.014C554.046 406.865 534.706 442.576 534.612 485.135C569.263 500.155 603.915 515.175 638.566 530.195L704.862 479.79Z" fill="white"/>
<path d="M716.572 534.483C715.922 534.483 715.264 534.465 714.596 534.431C714.529 534.427 714.462 534.414 714.399 534.39L651.162 510.741C650.964 510.666 650.813 510.501 650.757 510.297C650.701 510.092 650.746 509.873 650.879 509.709C655.465 504.02 661.12 494.651 662.02 482.319C662.322 478.181 662.059 473.984 661.24 469.847C661.196 469.627 661.268 469.4 661.429 469.244C661.59 469.089 661.82 469.025 662.038 469.077L705.012 479.147C705.367 479.23 705.587 479.585 705.503 479.94C705.421 480.294 705.063 480.515 704.711 480.431L662.721 470.592C663.415 474.52 663.621 478.492 663.335 482.415C662.448 494.582 657.064 503.932 652.473 509.822L714.765 533.118C720.802 533.415 726.032 532.242 730.32 529.63C739.969 523.755 749.874 507.308 742.266 462.318C738.791 441.769 734.465 416.195 711.701 399.897C688.706 383.433 662.161 386.663 651.576 388.892C649.727 391.089 643.631 397.328 633.845 397.649C625.798 397.92 619.991 393.942 617.735 392.083C605.685 390.417 594.422 391.609 584.262 395.626C554.697 407.316 535.497 442.254 535.273 484.701L638.829 529.588C639.163 529.733 639.317 530.122 639.171 530.456C639.026 530.79 638.638 530.945 638.304 530.799L534.349 485.738C534.107 485.634 533.951 485.395 533.952 485.132C533.998 464.089 538.694 444.417 547.532 428.242C556.427 411.96 568.961 400.258 583.777 394.4C594.205 390.277 605.755 389.066 618.104 390.803C618.226 390.82 618.342 390.871 618.437 390.951C620.463 392.653 626.004 396.587 633.802 396.33C643.315 396.019 649.144 389.78 650.705 387.876C650.8 387.76 650.931 387.68 651.077 387.649C661.678 385.383 688.882 381.937 712.469 398.825C735.674 415.439 740.051 441.311 743.567 462.098C751.298 507.817 741.003 524.67 731.006 530.757C726.942 533.232 722.093 534.483 716.572 534.483Z" fill="#292929"/>
<path d="M623.631 493.156L634.65 503.598L605.637 503.439L609.75 491.1L623.631 493.156Z" fill="#292929"/>
<path d="M650.879 510.268C650.802 510.268 650.725 510.256 650.649 510.227L622.887 499.945C622.595 499.836 622.418 499.537 622.464 499.228L624.543 485.359H605.15C604.464 485.359 603.857 485.002 603.523 484.404C603.189 483.806 603.206 483.1 603.566 482.518L608.599 474.375C613.159 466.999 621.628 463.202 630.164 464.7L661.606 470.216C661.964 470.279 662.204 470.621 662.142 470.979C662.079 471.338 661.735 471.58 661.378 471.515L629.937 465.999C621.929 464.594 613.996 468.154 609.722 475.068L604.689 483.211C604.537 483.457 604.629 483.677 604.676 483.761C604.722 483.845 604.862 484.04 605.15 484.04H625.309C625.501 484.04 625.683 484.124 625.808 484.269C625.934 484.414 625.989 484.608 625.961 484.797L623.849 498.894L651.108 508.99C651.45 509.116 651.624 509.496 651.498 509.838C651.398 510.104 651.146 510.268 650.879 510.268Z" fill="#292929"/>
<path d="M470.111 496.399H628.069C631.361 496.399 634.03 493.731 634.03 490.439C634.03 487.147 631.361 484.478 628.069 484.478H470.111C466.819 484.478 464.15 487.147 464.15 490.439C464.15 493.731 466.819 496.399 470.111 496.399Z" fill="white"/>
<path d="M628.067 497.059H470.108C466.458 497.059 463.488 494.089 463.488 490.438C463.488 486.788 466.458 483.818 470.108 483.818H628.067C631.717 483.818 634.687 486.788 634.687 490.438C634.687 494.089 631.717 497.059 628.067 497.059ZM470.108 485.138C467.186 485.138 464.807 487.515 464.807 490.438C464.807 493.361 467.186 495.74 470.108 495.74H628.067C630.99 495.74 633.368 493.362 633.368 490.438C633.368 487.515 630.99 485.138 628.067 485.138H470.108Z" fill="#292929"/>
<path d="M442.836 410.037L461.757 490.453C462.577 493.937 465.685 496.399 469.264 496.399H566.724C570.149 496.399 572.678 493.206 571.893 489.873L552.89 409.111C552.118 405.831 549.191 403.511 545.82 403.511H448.004C444.58 403.511 442.052 406.704 442.836 410.037Z" fill="white"/>
<path d="M566.726 497.059H469.266C465.361 497.059 462.01 494.405 461.116 490.604L442.195 410.189C441.775 408.403 442.187 406.554 443.326 405.116C444.465 403.677 446.171 402.852 448.006 402.852H545.822C549.516 402.852 552.688 405.364 553.534 408.961L572.537 489.723C572.957 491.508 572.545 493.358 571.406 494.796C570.267 496.234 568.561 497.059 566.726 497.059ZM448.006 404.172C446.576 404.172 445.248 404.814 444.361 405.935C443.473 407.055 443.152 408.496 443.479 409.887L462.4 490.302C463.154 493.504 465.977 495.74 469.266 495.74H566.726C568.155 495.74 569.484 495.097 570.371 493.977C571.259 492.856 571.58 491.416 571.253 490.025L552.25 409.263C551.544 406.265 548.902 404.172 545.822 404.172H448.006Z" fill="#292929"/>
<path d="M503.372 434.733C504.159 432.832 503.257 430.653 501.356 429.865C499.455 429.078 497.276 429.981 496.488 431.882C495.701 433.782 496.604 435.962 498.505 436.749C500.405 437.536 502.585 436.634 503.372 434.733Z" fill="#C776EA"/>
<path d="M548.021 485.417H478.5C478.136 485.417 477.84 485.122 477.84 484.758C477.84 484.394 478.136 484.098 478.5 484.098H548.021C548.385 484.098 548.681 484.394 548.681 484.758C548.681 485.122 548.385 485.417 548.021 485.417Z" fill="#292929"/>
<path d="M712.91 533.808C661.293 514.299 609.676 494.79 558.06 475.282C505.508 455.42 446.667 480.747 424.97 532.568C408.421 572.093 391.871 611.62 375.322 651.146C399.96 660.237 428.563 669.407 453.201 678.498L556.749 594.623H673.643C686.557 594.623 698.867 588.763 706.698 578.495C706.916 578.21 707.131 577.921 707.345 577.627C719.066 561.503 716.702 543.248 715.345 536.664C715.075 535.357 714.159 534.28 712.91 533.808Z" fill="#C776EA"/>
<path d="M560.305 568.93L537.379 727.036C518.879 726.594 499.16 725.417 478.392 723.226C466.099 721.929 454.267 720.364 442.917 718.599C450.162 673.057 457.406 627.516 464.65 581.974L560.305 568.93Z" fill="#C776EA"/>
<path d="M688.668 476.079C688.362 476.079 688.087 475.865 688.023 475.553L678.239 428.349C678.165 427.993 678.395 427.644 678.751 427.57C679.104 427.495 679.457 427.725 679.531 428.082L689.314 475.286C689.388 475.643 689.158 475.991 688.802 476.065C688.757 476.075 688.713 476.079 688.668 476.079Z" fill="#292929"/>
<path d="M593.555 484.305C593.228 484.305 592.944 484.062 592.902 483.729L586.134 431.066C586.087 430.705 586.343 430.374 586.704 430.328C587.069 430.282 587.396 430.537 587.442 430.898L594.21 483.561C594.257 483.922 594.001 484.253 593.64 484.299C593.611 484.303 593.582 484.305 593.555 484.305Z" fill="#292929"/>
<path d="M610.78 484.964C610.675 484.964 610.569 484.939 610.47 484.886C610.149 484.715 610.027 484.316 610.198 483.995C610.931 482.62 611.74 481.271 612.604 479.984C614.45 477.236 616.609 474.673 619.021 472.365C619.283 472.114 619.701 472.123 619.953 472.386C620.205 472.649 620.196 473.067 619.933 473.319C617.59 475.56 615.493 478.051 613.699 480.72C612.86 481.969 612.074 483.28 611.362 484.615C611.244 484.837 611.016 484.964 610.78 484.964Z" fill="#292929"/>
<path d="M619.08 484.964C618.986 484.964 618.889 484.944 618.798 484.9C618.469 484.745 618.329 484.352 618.484 484.022C618.969 483 619.504 481.995 620.077 481.036C621.3 478.988 622.73 477.078 624.329 475.357C624.576 475.091 624.995 475.075 625.261 475.323C625.527 475.571 625.543 475.988 625.295 476.255C623.759 477.908 622.385 479.744 621.21 481.712C620.658 482.636 620.142 483.603 619.676 484.586C619.564 484.825 619.327 484.964 619.08 484.964Z" fill="#292929"/>
<path d="M626.668 485.241C626.564 485.241 626.459 485.216 626.361 485.164C626.039 484.994 625.916 484.594 626.086 484.273C626.905 482.725 627.855 481.232 628.909 479.835C629.54 479 630.219 478.186 630.926 477.415C631.173 477.147 631.59 477.13 631.858 477.376C632.126 477.622 632.144 478.039 631.898 478.308C631.219 479.047 630.568 479.829 629.962 480.63C628.95 481.97 628.039 483.404 627.252 484.889C627.134 485.113 626.905 485.241 626.668 485.241Z" fill="#292929"/>
<path d="M637.513 342.519C637.742 340.954 638.059 337.305 636.266 333.307C634.469 329.301 631.408 326.916 629.546 325.841C620.187 320.438 607.133 325.525 600.391 337.204C593.648 348.883 595.769 362.731 605.128 368.134C614.487 373.538 627.541 368.451 634.284 356.772C634.466 356.456 634.639 356.137 634.809 355.818C635.383 355.922 639.394 356.586 642.307 353.916C645.195 351.269 646.289 346.005 643.682 343.548C641.546 341.534 637.98 342.399 637.513 342.519Z" fill="white"/>
<path d="M613.358 370.961C610.31 370.961 607.398 370.206 604.799 368.705C595.14 363.129 592.906 348.849 599.82 336.874C606.734 324.899 620.216 319.693 629.877 325.269C631.3 326.091 634.83 328.493 636.868 333.037C638.34 336.319 638.488 339.429 638.276 341.695C639.721 341.476 642.346 341.381 644.135 343.067C645.248 344.116 645.829 345.634 645.816 347.458C645.798 349.987 644.596 352.713 642.753 354.401C640.093 356.839 636.574 356.709 635.17 356.538C635.067 356.726 634.963 356.914 634.855 357.101C631.519 362.879 626.572 367.272 620.926 369.473C618.379 370.466 615.823 370.961 613.358 370.961ZM621.324 324.345C613.808 324.345 605.75 329.241 600.962 337.533C594.412 348.879 596.429 362.35 605.458 367.563C609.808 370.075 615.131 370.317 620.448 368.245C625.815 366.153 630.526 361.961 633.713 356.442C633.891 356.132 634.06 355.821 634.227 355.509C634.362 355.256 634.64 355.119 634.927 355.169C635.629 355.297 639.263 355.812 641.862 353.43C643.447 351.977 644.482 349.63 644.497 347.45C644.504 346.441 644.29 345.028 643.23 344.028C641.407 342.311 638.285 343.003 637.677 343.159C637.464 343.214 637.235 343.158 637.072 343.011C636.908 342.863 636.828 342.643 636.86 342.424C637.172 340.3 637.217 337.04 635.664 333.578C633.784 329.385 630.529 327.17 629.216 326.413C626.787 325.009 624.092 324.345 621.324 324.345Z" fill="#292929"/>
<path d="M599.209 334.036C599.94 334.554 607.431 339.674 616.175 336.607C623.034 334.202 627.894 327.732 628.514 320.155C622.859 317.585 617.203 315.014 611.548 312.443L599.209 334.036Z" fill="#292929"/>
<path d="M623.886 320.669C621.194 326.863 622.206 333.949 626.457 338.663C631.647 344.42 640.809 345.686 648.05 341.234L623.886 320.669Z" fill="#292929"/>
<path d="M635.971 351.259C636.427 351.194 637.839 350.934 639.056 349.717C639.381 349.391 640.355 348.335 640.598 346.632L635.971 351.259Z" fill="white"/>
<path d="M635.97 351.918C635.647 351.918 635.365 351.681 635.318 351.352C635.267 350.991 635.517 350.657 635.877 350.606C636.469 350.521 637.607 350.233 638.589 349.25C639.011 348.828 639.749 347.914 639.945 346.538C639.997 346.178 640.327 345.928 640.691 345.979C641.052 346.03 641.302 346.364 641.251 346.725C641 348.479 640.06 349.645 639.521 350.183C638.269 351.436 636.817 351.804 636.064 351.912C636.033 351.916 636.001 351.918 635.97 351.918Z" fill="#292929"/>
<path d="M663.989 595.099H510.01C509.646 595.099 509.35 594.803 509.35 594.439C509.35 594.075 509.646 593.78 510.01 593.78H663.989C664.353 593.78 664.649 594.075 664.649 594.439C664.649 594.803 664.353 595.099 663.989 595.099Z" fill="#292929"/>
<path d="M450.888 678.901C450.809 678.901 450.73 678.888 450.653 678.858C450.313 678.728 450.142 678.347 450.272 678.006L486.587 582.727C493.159 565.482 512.043 556.477 529.583 562.228L625.895 593.813C626.241 593.926 626.429 594.299 626.316 594.645C626.202 594.991 625.831 595.18 625.483 595.066L529.172 563.482C512.305 557.951 494.141 566.61 487.819 583.197L451.504 678.476C451.404 678.739 451.154 678.901 450.888 678.901Z" fill="#292929"/>
<path d="M203.936 570.358H207.495C210.003 570.358 211.862 571.182 211.862 573.654C211.862 576.036 209.996 577.119 207.564 577.119H205.94V581.048H203.936V570.358ZM207.398 575.602C209.084 575.602 209.886 574.968 209.886 573.654C209.886 572.326 209.008 571.875 207.329 571.875H205.94V575.602H207.398Z" fill="#292929"/>
<path d="M213.05 578.891C213.05 577.172 214.557 576.276 218.04 575.923C218.012 575.06 217.646 574.34 216.498 574.34C215.655 574.34 214.86 574.7 214.114 575.131L213.382 573.876C214.315 573.321 215.517 572.824 216.865 572.824C218.986 572.824 220.03 574.059 220.03 576.295V581.049H218.399L218.247 580.16H218.191C217.431 580.774 216.56 581.245 215.558 581.245C214.073 581.245 213.05 580.29 213.05 578.891ZM218.04 578.898V577.093C215.739 577.367 214.971 577.936 214.971 578.747C214.971 579.456 215.483 579.767 216.195 579.767C216.885 579.767 217.411 579.447 218.04 578.898Z" fill="#292929"/>
<path d="M221.922 580.127L222.849 578.93C223.602 579.486 224.331 579.826 225.191 579.826C226.118 579.826 226.553 579.414 226.553 578.865C226.553 578.191 225.634 577.89 224.728 577.563C223.616 577.168 222.344 576.563 222.344 575.223C222.344 573.831 223.533 572.824 225.433 572.824C226.615 572.824 227.562 573.278 228.253 573.785L227.34 574.942C226.746 574.53 226.148 574.243 225.482 574.243C224.628 574.243 224.224 574.628 224.224 575.131C224.224 575.765 225.081 576.008 226 576.328C227.147 576.733 228.433 577.256 228.433 578.754C228.433 580.134 227.278 581.245 225.136 581.245C223.975 581.245 222.751 580.774 221.922 580.127Z" fill="#292929"/>
<path d="M229.713 580.127L230.639 578.93C231.393 579.486 232.122 579.826 232.982 579.826C233.908 579.826 234.344 579.414 234.344 578.865C234.344 578.191 233.425 577.89 232.519 577.563C231.406 577.168 230.135 576.563 230.135 575.223C230.135 573.831 231.324 572.824 233.224 572.824C234.406 572.824 235.352 573.278 236.044 573.785L235.131 574.942C234.537 574.53 233.939 574.243 233.272 574.243C232.419 574.243 232.015 574.628 232.015 575.131C232.015 575.765 232.872 576.008 233.791 576.328C234.938 576.733 236.223 577.256 236.223 578.754C236.223 580.134 235.069 581.245 232.927 581.245C231.766 581.245 230.543 580.774 229.713 580.127Z" fill="#292929"/>
<path d="M237.5 573.02H239.497L240.527 577.185C240.692 577.963 240.817 578.714 240.969 579.499H241.038C241.204 578.715 241.37 577.943 241.577 577.185L242.69 573.02H244.493L245.627 577.185C245.834 577.963 246 578.714 246.187 579.499H246.256C246.422 578.715 246.546 577.963 246.712 577.185L247.728 573.02H249.587L247.437 581.048H245.074L244.079 577.302C243.899 576.55 243.747 575.811 243.567 574.971H243.498C243.332 575.811 243.187 576.563 242.993 577.315L242.033 581.048H239.738L237.5 573.02Z" fill="#292929"/>
<path d="M250.95 577.041C250.95 574.367 252.871 572.824 254.986 572.824C257.101 572.824 259.022 574.367 259.022 577.041C259.022 579.702 257.101 581.245 254.986 581.245C252.871 581.245 250.95 579.702 250.95 577.041ZM256.976 577.041C256.976 575.433 256.229 574.36 254.986 574.36C253.742 574.36 252.996 575.432 252.996 577.041C252.996 578.649 253.742 579.708 254.986 579.708C256.229 579.708 256.976 578.649 256.976 577.041Z" fill="#292929"/>
<path d="M261.339 573.02H262.97L263.122 574.451H263.177C263.782 573.405 264.681 572.824 265.589 572.824C266.021 572.824 266.294 572.876 266.55 572.987L266.204 574.622C265.907 574.543 265.686 574.491 265.334 574.491C264.656 574.491 263.841 574.929 263.33 576.151V581.048H261.339V573.02Z" fill="#292929"/>
<path d="M267.437 577.04C267.437 574.425 269.172 572.823 271.031 572.823C271.992 572.823 272.6 573.163 273.257 573.706L273.18 572.412V569.502H275.171V581.048H273.54L273.388 580.178H273.332C272.703 580.774 271.832 581.244 270.92 581.244C268.806 581.244 267.437 579.688 267.437 577.04ZM273.18 578.786V575.046C272.6 574.556 272.027 574.379 271.453 574.379C270.375 574.379 269.483 575.347 269.483 577.02C269.483 578.766 270.188 579.688 271.411 579.688C272.068 579.688 272.621 579.414 273.18 578.786Z" fill="#292929"/>
<path d="M203.884 513.355V507.354H205.888V513.5C205.888 515.827 206.807 516.592 208.175 516.592C209.557 516.592 210.511 515.827 210.511 513.5V507.354H212.439V513.355C212.439 516.866 210.794 518.239 208.175 518.239C205.556 518.239 203.884 516.866 203.884 513.355Z" fill="#292929"/>
<path d="M214.478 517.121L215.404 515.924C216.157 516.48 216.886 516.82 217.747 516.82C218.673 516.82 219.108 516.408 219.108 515.859C219.108 515.186 218.189 514.884 217.284 514.558C216.171 514.162 214.899 513.558 214.899 512.218C214.899 510.825 216.088 509.818 217.989 509.818C219.171 509.818 220.117 510.272 220.808 510.779L219.896 511.936C219.301 511.525 218.704 511.236 218.036 511.236C217.183 511.236 216.779 511.622 216.779 512.125C216.779 512.759 217.636 513.002 218.555 513.322C219.702 513.727 220.987 514.25 220.987 515.748C220.987 517.127 219.833 518.239 217.691 518.239C216.53 518.239 215.307 517.768 214.478 517.121Z" fill="#292929"/>
<path d="M222.552 514.035C222.552 511.426 224.467 509.818 226.464 509.818C228.759 509.818 229.968 511.387 229.968 513.629C229.968 513.989 229.927 514.349 229.882 514.545H224.495C224.661 515.97 225.628 516.781 226.996 516.781C227.722 516.781 228.344 516.565 228.966 516.199L229.643 517.369C228.835 517.886 227.812 518.239 226.734 518.239C224.391 518.239 222.552 516.682 222.552 514.035ZM228.247 513.264C228.247 512.028 227.667 511.276 226.506 511.276C225.518 511.276 224.647 511.975 224.474 513.264H228.247Z" fill="#292929"/>
<path d="M232.216 510.014H233.847L233.999 511.446H234.054C234.658 510.4 235.557 509.818 236.466 509.818C236.898 509.818 237.171 509.87 237.427 509.982L237.081 511.616C236.784 511.537 236.562 511.485 236.21 511.485C235.533 511.485 234.717 511.923 234.206 513.145V518.043H232.216V510.014Z" fill="#292929"/>
<path d="M239.005 510.014H240.636L240.788 511.099H240.843C241.603 510.4 242.467 509.818 243.628 509.818C245.445 509.818 246.24 510.981 246.24 513.009V518.043H244.25V513.25C244.25 511.93 243.849 511.433 242.93 511.433C242.184 511.433 241.693 511.779 240.995 512.433V518.043H239.005V510.014Z" fill="#292929"/>
<path d="M248.568 515.885C248.568 514.166 250.074 513.27 253.557 512.917C253.529 512.054 253.164 511.335 252.016 511.335C251.173 511.335 250.378 511.694 249.632 512.126L248.899 510.871C249.832 510.315 251.034 509.818 252.382 509.818C254.504 509.818 255.547 511.054 255.547 513.289V518.043H253.916L253.764 517.153H253.709C252.949 517.768 252.078 518.239 251.076 518.239C249.59 518.239 248.568 517.284 248.568 515.885ZM253.557 515.892V514.087C251.256 514.362 250.489 514.931 250.489 515.741C250.489 516.451 251 516.761 251.712 516.761C252.403 516.761 252.928 516.441 253.557 515.892Z" fill="#292929"/>
<path d="M258.283 510.014H259.914L260.066 511.109H260.121C260.84 510.4 261.662 509.818 262.727 509.818C263.971 509.818 264.679 510.354 265.069 511.256C265.882 510.439 266.721 509.818 267.799 509.818C269.589 509.818 270.419 510.981 270.419 513.009V518.043H268.429V513.251C268.429 511.93 268.014 511.433 267.122 511.433C266.583 511.433 266.003 511.76 265.346 512.433V518.043H263.356V513.251C263.356 511.93 262.941 511.433 262.049 511.433C261.524 511.433 260.93 511.76 260.273 512.433V518.043H258.283V510.014Z" fill="#292929"/>
<path d="M272.631 514.035C272.631 511.426 274.546 509.818 276.543 509.818C278.837 509.818 280.047 511.387 280.047 513.629C280.047 513.989 280.005 514.349 279.96 514.545H274.573C274.739 515.97 275.707 516.781 277.075 516.781C277.8 516.781 278.423 516.565 279.044 516.199L279.722 517.369C278.913 517.886 277.891 518.239 276.812 518.239C274.47 518.239 272.631 516.682 272.631 514.035ZM278.326 513.264C278.326 512.028 277.746 511.276 276.584 511.276C275.596 511.276 274.725 511.975 274.552 513.264H278.326Z" fill="#292929"/>
<path d="M378.62 598.476H190.394C184.455 598.476 179.624 593.645 179.624 587.706V565.531C179.624 559.592 184.455 554.761 190.394 554.761H378.62C384.558 554.761 389.39 559.592 389.39 565.531V587.706C389.39 593.645 384.558 598.476 378.62 598.476ZM190.394 556.08C185.183 556.08 180.943 560.32 180.943 565.531V587.706C180.943 592.918 185.183 597.157 190.394 597.157H378.62C383.831 597.157 388.071 592.917 388.071 587.706V565.531C388.071 560.32 383.831 556.08 378.62 556.08H190.394Z" fill="#292929"/>
<path d="M378.62 535.472H190.394C184.455 535.472 179.624 530.64 179.624 524.702V502.527C179.624 496.588 184.455 491.756 190.394 491.756H378.62C384.558 491.756 389.39 496.588 389.39 502.527V524.702C389.39 530.64 384.558 535.472 378.62 535.472ZM190.394 493.076C185.183 493.076 180.943 497.315 180.943 502.527V524.702C180.943 529.913 185.183 534.152 190.394 534.152H378.62C383.831 534.152 388.071 529.913 388.071 524.702V502.527C388.071 497.315 383.831 493.076 378.62 493.076H190.394Z" fill="#292929"/>
<path d="M338.698 668.339H238.154C233.996 668.339 230.625 664.968 230.625 660.809V633.472C230.625 629.314 233.996 625.943 238.154 625.943H338.698C342.857 625.943 346.228 629.314 346.228 633.472V660.809C346.228 664.967 342.857 668.339 338.698 668.339Z" fill="#C776EA"/>
<path d="M260.415 638.365H263.224V651.114H269.8V653.35H260.415V638.365Z" fill="white"/>
<path d="M271.712 647.731C271.712 643.983 274.405 641.82 277.369 641.82C280.333 641.82 283.026 643.983 283.026 647.731C283.026 651.461 280.333 653.624 277.369 653.624C274.405 653.624 271.712 651.461 271.712 647.731ZM280.159 647.731C280.159 645.476 279.113 643.973 277.369 643.973C275.626 643.973 274.58 645.476 274.58 647.731C274.58 649.986 275.626 651.47 277.369 651.47C279.113 651.47 280.159 649.986 280.159 647.731Z" fill="white"/>
<path d="M285.463 655.394C285.463 654.446 286.083 653.616 287.178 652.993V652.901C286.568 652.525 286.103 651.93 286.103 651.022C286.103 650.152 286.732 649.382 287.42 648.924V648.832C286.606 648.264 285.851 647.191 285.851 645.862C285.851 643.278 288.06 641.821 290.549 641.821C291.208 641.821 291.828 641.931 292.312 642.096H296.564V644.057H294.394C294.782 644.478 295.072 645.175 295.072 645.945C295.072 648.447 293.067 649.785 290.549 649.785C290.045 649.785 289.474 649.684 288.941 649.487C288.583 649.776 288.36 650.06 288.36 650.564C288.36 651.196 288.844 651.581 290.287 651.581H292.404C295.246 651.581 296.757 652.415 296.757 654.358C296.757 656.576 294.297 658.327 290.413 658.327C287.575 658.327 285.463 657.365 285.463 655.394ZM294.065 654.789C294.065 653.918 293.329 653.662 291.968 653.662H290.336C289.697 653.662 289.183 653.616 288.728 653.506C288.089 653.965 287.808 654.468 287.808 654.991C287.808 656.018 288.97 656.613 290.839 656.613C292.757 656.613 294.065 655.76 294.065 654.789ZM292.612 645.862C292.612 644.45 291.711 643.644 290.548 643.644C289.386 643.644 288.485 644.441 288.485 645.862C288.485 647.292 289.406 648.125 290.548 648.125C291.692 648.125 292.612 647.292 292.612 645.862Z" fill="white"/>
<path d="M299.032 638.631C299.032 637.742 299.769 637.137 300.757 637.137C301.745 637.137 302.481 637.742 302.481 638.631C302.481 639.502 301.745 640.125 300.757 640.125C299.769 640.125 299.032 639.502 299.032 638.631ZM299.352 642.095H302.142V653.35H299.352V642.095Z" fill="white"/>
<path d="M306.183 642.094H308.469L308.682 643.616H308.759C309.825 642.635 311.035 641.82 312.663 641.82C315.21 641.82 316.324 643.451 316.324 646.292V653.35H313.534V646.631C313.534 644.78 312.972 644.084 311.684 644.084C310.638 644.084 309.95 644.569 308.972 645.486V653.35H306.182V642.094H306.183Z" fill="white"/>
<path d="M382.974 295.694C382.61 295.694 382.315 295.399 382.315 295.034V236.533H321.094C320.729 236.533 320.434 236.238 320.434 235.874C320.434 235.509 320.729 235.214 321.094 235.214H382.974C383.339 235.214 383.634 235.509 383.634 235.874V295.034C383.634 295.399 383.339 295.694 382.974 295.694Z" fill="#292929"/>
<path d="M181.693 295.694C181.328 295.694 181.033 295.399 181.033 295.034V235.874C181.033 235.509 181.328 235.214 181.693 235.214H243.573C243.938 235.214 244.233 235.509 244.233 235.874C244.233 236.238 243.938 236.533 243.573 236.533H182.352V295.034C182.352 295.399 182.057 295.694 181.693 295.694Z" fill="#292929"/>
<path d="M243.573 437.136H181.693C181.328 437.136 181.033 436.841 181.033 436.476V377.316C181.033 376.951 181.328 376.656 181.693 376.656C182.057 376.656 182.352 376.951 182.352 377.316V435.817H243.573C243.938 435.817 244.233 436.112 244.233 436.476C244.233 436.841 243.937 437.136 243.573 437.136Z" fill="#292929"/>
<path d="M382.974 437.136H321.094C320.729 437.136 320.434 436.841 320.434 436.476C320.434 436.112 320.729 435.817 321.094 435.817H382.315V377.316C382.315 376.951 382.61 376.656 382.974 376.656C383.339 376.656 383.634 376.951 383.634 377.316V436.476C383.634 436.84 383.339 437.136 382.974 437.136Z" fill="#292929"/>
<path d="M352.694 336.175C352.694 354.306 345.836 370.837 334.578 383.31C321.691 397.575 303.056 406.537 282.332 406.537C261.594 406.537 242.944 397.56 230.072 383.295C218.829 370.823 211.971 354.306 211.971 336.175C211.971 297.32 243.463 265.813 282.333 265.813C321.187 265.813 352.694 297.32 352.694 336.175Z" fill="white"/>
<path d="M282.335 407.196C262.265 407.196 243.038 398.646 229.584 383.737C217.802 370.665 211.313 353.775 211.313 336.174C211.313 297.013 243.173 265.153 282.335 265.153C321.496 265.153 353.356 297.013 353.356 336.174C353.356 353.791 346.862 370.687 335.07 383.751C321.61 398.651 302.388 407.196 282.335 407.196ZM282.335 266.472C243.901 266.472 212.632 297.74 212.632 336.174C212.632 353.448 219 370.025 230.564 382.853C243.768 397.485 262.638 405.876 282.335 405.876C302.016 405.876 320.88 397.49 334.091 382.867C345.663 370.045 352.037 353.463 352.037 336.174C352.037 297.74 320.769 266.472 282.335 266.472Z" fill="#C776EA"/>
<path d="M282.328 358.977C299.26 358.977 312.986 345.251 312.986 328.319C312.986 311.387 299.26 297.661 282.328 297.661C265.396 297.661 251.67 311.387 251.67 328.319C251.67 345.251 265.396 358.977 282.328 358.977Z" fill="#C776EA"/>
<path d="M334.578 383.31C321.691 397.575 303.056 406.537 282.332 406.537C261.594 406.537 242.945 397.56 230.072 383.295C232.294 379.636 234.945 376.274 237.953 373.267C247.137 364.083 259.639 358.231 273.519 357.683H273.534C274.245 357.653 274.956 357.639 275.667 357.639H288.998C289.709 357.639 290.42 357.654 291.131 357.683H291.146C309.559 358.409 325.572 368.482 334.578 383.31Z" fill="#C776EA"/>
<path d="M97.2737 548.488H71.363C70.9984 548.488 70.7034 548.192 70.7034 547.828V491.832C70.7034 491.468 70.9984 491.173 71.363 491.173C71.7275 491.173 72.0225 491.468 72.0225 491.832V547.169H97.2737C97.6383 547.169 97.9333 547.465 97.9333 547.829C97.9333 548.193 97.6383 548.488 97.2737 548.488Z" fill="#292929"/>
<path d="M71.3622 480.102C75.0466 480.102 78.0333 477.115 78.0333 473.431C78.0333 469.747 75.0466 466.76 71.3622 466.76C67.6779 466.76 64.6912 469.747 64.6912 473.431C64.6912 477.115 67.6779 480.102 71.3622 480.102Z" fill="#C776EA"/>
<path d="M76.0764 454.684C78.6816 452.078 78.6816 447.855 76.0764 445.249C73.4712 442.644 69.2474 442.644 66.6422 445.249C64.037 447.855 64.037 452.078 66.6422 454.684C69.2474 457.289 73.4712 457.289 76.0764 454.684Z" fill="#C776EA"/>
<path d="M77.8661 424.839C78.7183 421.255 76.5033 417.658 72.9189 416.806C69.3344 415.954 65.7377 418.169 64.8855 421.753C64.0334 425.338 66.2483 428.934 69.8328 429.786C73.4173 430.639 77.0139 428.424 77.8661 424.839Z" fill="#C776EA"/>
<path d="M71.363 401.883C70.9984 401.883 70.7034 401.588 70.7034 401.224V342.581C70.7034 342.216 70.9984 341.921 71.363 341.921H227.904C228.268 341.921 228.563 342.216 228.563 342.581C228.563 342.945 228.268 343.24 227.904 343.24H72.0225V401.224C72.0225 401.588 71.7275 401.883 71.363 401.883Z" fill="#292929"/>
<path d="M626.403 754H60.5967C60.2668 754 59.9998 753.552 59.9998 753C59.9998 752.448 60.2668 752 60.5967 752H626.403C626.732 752 627 752.448 627 753C627 753.552 626.732 754 626.403 754Z" fill="#292929"/>
<path d="M822.34 753.88H680.179C679.815 753.88 679.52 753.584 679.52 753.22C679.52 752.856 679.815 752.561 680.179 752.561H822.34C822.704 752.561 823 752.856 823 753.22C823 753.584 822.705 753.88 822.34 753.88Z" fill="#292929"/>
</svg>
