<svg width="66" height="66" viewBox="0 0 66 66" fill="none" xmlns="http://www.w3.org/2000/svg">
<rect width="66" height="66" rx="33" fill="#E9F6FB"/>
<path d="M38.0842 41.1317C37.1931 41.7295 34.8584 42.9478 36.2808 44.4722C36.9749 45.2173 37.7498 45.75 38.7217 45.75H44.275C45.2468 45.75 46.0218 45.2173 46.7159 44.4722C48.1383 42.9478 45.8036 41.7295 44.9125 41.1331C43.9053 40.4491 42.7158 40.0835 41.4983 40.0835C40.2808 40.0835 39.0914 40.4477 38.0842 41.1317ZM44.3317 33.7083C44.3317 34.4598 44.0332 35.1804 43.5018 35.7118C42.9705 36.2432 42.2498 36.5417 41.4983 36.5417C40.7469 36.5417 40.0262 36.2432 39.4949 35.7118C38.9635 35.1804 38.665 34.4598 38.665 33.7083C38.665 32.9569 38.9635 32.2362 39.4949 31.7049C40.0262 31.1735 40.7469 30.875 41.4983 30.875C42.2498 30.875 42.9705 31.1735 43.5018 31.7049C44.0332 32.2362 44.3317 32.9569 44.3317 33.7083Z" stroke="#94A3B8" stroke-width="1.5"/>
<path d="M30.1654 24.5H37.2487M30.1654 20.25H41.4987M25.9154 29.4583V35.8333C25.9154 37.1692 25.9154 37.8365 25.5003 38.2516C25.0852 38.6667 24.4179 38.6667 23.082 38.6667H21.6654C20.3294 38.6667 19.6622 38.6667 19.2471 38.2516C18.832 37.8365 18.832 37.1692 18.832 35.8333V32.2917C18.832 30.9557 18.832 30.2885 19.2471 29.8734C19.6622 29.4583 20.3294 29.4583 21.6654 29.4583H25.9154ZM25.9154 29.4583H32.9987" stroke="#94A3B8" stroke-width="1.5" stroke-linecap="round" stroke-linejoin="round"/>
<path d="M25.2057 23.0833C25.2057 23.8348 24.9072 24.5554 24.3759 25.0868C23.8445 25.6182 23.1238 25.9167 22.3724 25.9167C21.6209 25.9167 20.9003 25.6182 20.3689 25.0868C19.8376 24.5554 19.5391 23.8348 19.5391 23.0833C19.5391 22.3319 19.8376 21.6112 20.3689 21.0799C20.9003 20.5485 21.6209 20.25 22.3724 20.25C23.1238 20.25 23.8445 20.5485 24.3759 21.0799C24.9072 21.6112 25.2057 22.3319 25.2057 23.0833Z" stroke="#94A3B8" stroke-width="1.5"/>
</svg>
