<svg width="62" height="62" viewBox="0 0 62 62" fill="none" xmlns="http://www.w3.org/2000/svg">
<g filter="url(#filter0_dd_1454_70737)">
<path d="M4.6936 15.959C4.6936 7.66393 11.4181 0.939453 19.7132 0.939453H42.2425C50.5376 0.939453 57.2621 7.66394 57.2621 15.959V38.4883C57.2621 46.7834 50.5376 53.5079 42.2425 53.5079H19.7132C11.4181 53.5079 4.6936 46.7834 4.6936 38.4883V15.959Z" fill="#A6DCED" shape-rendering="crispEdges"/>
<path d="M35.3557 37.0828V34.8924C35.3557 33.7306 34.8941 32.6163 34.0726 31.7948C33.251 30.9733 32.1368 30.5117 30.975 30.5117H24.4039C23.2421 30.5117 22.1278 30.9733 21.3063 31.7948C20.4847 32.6163 20.0232 33.7306 20.0232 34.8924V37.0828" stroke="white" stroke-width="2.19035" stroke-linecap="round" stroke-linejoin="round"/>
<path d="M35.3591 17.5078C36.2985 17.7513 37.1305 18.2999 37.7244 19.0674C38.3183 19.8349 38.6405 20.7779 38.6405 21.7483C38.6405 22.7188 38.3183 23.6618 37.7244 24.4293C37.1305 25.1968 36.2985 25.7453 35.3591 25.9889" stroke="white" stroke-width="2.19035" stroke-linecap="round" stroke-linejoin="round"/>
<path d="M41.9298 37.081V34.8907C41.9291 33.9201 41.606 32.9772 41.0114 32.21C40.4167 31.4429 39.5841 30.895 38.6443 30.6523" stroke="white" stroke-width="2.19035" stroke-linecap="round" stroke-linejoin="round"/>
<path d="M27.6891 26.1286C30.1084 26.1286 32.0698 24.1673 32.0698 21.7479C32.0698 19.3285 30.1084 17.3672 27.6891 17.3672C25.2697 17.3672 23.3083 19.3285 23.3083 21.7479C23.3083 24.1673 25.2697 26.1286 27.6891 26.1286Z" stroke="white" stroke-width="2.19035" stroke-linecap="round" stroke-linejoin="round"/>
</g>
<defs>
<filter id="filter0_dd_1454_70737" x="-7.92742e-06" y="0.000730932" width="61.9556" height="61.9556" filterUnits="userSpaceOnUse" color-interpolation-filters="sRGB">
<feFlood flood-opacity="0" result="BackgroundImageFix"/>
<feColorMatrix in="SourceAlpha" type="matrix" values="0 0 0 0 0 0 0 0 0 0 0 0 0 0 0 0 0 0 127 0" result="hardAlpha"/>
<feMorphology radius="1.87744" operator="erode" in="SourceAlpha" result="effect1_dropShadow_1454_70737"/>
<feOffset dy="1.87744"/>
<feGaussianBlur stdDeviation="1.87744"/>
<feComposite in2="hardAlpha" operator="out"/>
<feColorMatrix type="matrix" values="0 0 0 0 0 0 0 0 0 0 0 0 0 0 0 0 0 0 0.1 0"/>
<feBlend mode="normal" in2="BackgroundImageFix" result="effect1_dropShadow_1454_70737"/>
<feColorMatrix in="SourceAlpha" type="matrix" values="0 0 0 0 0 0 0 0 0 0 0 0 0 0 0 0 0 0 127 0" result="hardAlpha"/>
<feMorphology radius="0.938722" operator="erode" in="SourceAlpha" result="effect2_dropShadow_1454_70737"/>
<feOffset dy="3.75489"/>
<feGaussianBlur stdDeviation="2.81617"/>
<feComposite in2="hardAlpha" operator="out"/>
<feColorMatrix type="matrix" values="0 0 0 0 0 0 0 0 0 0 0 0 0 0 0 0 0 0 0.1 0"/>
<feBlend mode="normal" in2="effect1_dropShadow_1454_70737" result="effect2_dropShadow_1454_70737"/>
<feBlend mode="normal" in="SourceGraphic" in2="effect2_dropShadow_1454_70737" result="shape"/>
</filter>
</defs>
</svg>
