<svg width="53" height="53" viewBox="0 0 53 53" fill="none" xmlns="http://www.w3.org/2000/svg">
<path d="M10.8389 0.541992H41.1875C46.8743 0.541992 51.4844 5.15206 51.4844 10.8389V41.1875C51.4844 46.8743 46.8743 51.4844 41.1875 51.4844H10.8389C5.15206 51.4844 0.541992 46.8743 0.541992 41.1875V10.8389C0.541992 5.15206 5.15206 0.541992 10.8389 0.541992Z" fill="#E9F6FB"/>
<path d="M10.8389 0.541992H41.1875C46.8743 0.541992 51.4844 5.15206 51.4844 10.8389V41.1875C51.4844 46.8743 46.8743 51.4844 41.1875 51.4844H10.8389C5.15206 51.4844 0.541992 46.8743 0.541992 41.1875V10.8389C0.541992 5.15206 5.15206 0.541992 10.8389 0.541992Z" stroke="#1B7694" stroke-width="1.08388"/>
<path d="M24.9473 16.0572C24.9938 15.8086 25.1257 15.584 25.3203 15.4224C25.5149 15.2608 25.7599 15.1724 26.0128 15.1724C26.2657 15.1724 26.5107 15.2608 26.7053 15.4224C26.8999 15.584 27.0318 15.8086 27.0783 16.0572L28.2174 22.0815C28.2983 22.5097 28.5065 22.9037 28.8147 23.2119C29.1229 23.5201 29.5168 23.7283 29.9451 23.8092L35.9693 24.9483C36.218 24.9948 36.4425 25.1267 36.6041 25.3213C36.7657 25.5159 36.8542 25.7608 36.8542 26.0138C36.8542 26.2667 36.7657 26.5117 36.6041 26.7063C36.4425 26.9009 36.218 27.0328 35.9693 27.0792L29.9451 28.2184C29.5168 28.2993 29.1229 28.5074 28.8147 28.8156C28.5065 29.1238 28.2983 29.5178 28.2174 29.9461L27.0783 35.9703C27.0318 36.219 26.8999 36.4435 26.7053 36.6051C26.5107 36.7667 26.2657 36.8552 26.0128 36.8552C25.7599 36.8552 25.5149 36.7667 25.3203 36.6051C25.1257 36.4435 24.9938 36.219 24.9473 35.9703L23.8082 29.9461C23.7273 29.5178 23.5191 29.1238 23.2109 28.8156C22.9027 28.5074 22.5088 28.2993 22.0805 28.2184L16.0563 27.0792C15.8076 27.0328 15.5831 26.9009 15.4215 26.7063C15.2598 26.5117 15.1714 26.2667 15.1714 26.0138C15.1714 25.7608 15.2598 25.5159 15.4215 25.3213C15.5831 25.1267 15.8076 24.9948 16.0563 24.9483L22.0805 23.8092C22.5088 23.7283 22.9027 23.5201 23.2109 23.2119C23.5191 22.9037 23.7273 22.5097 23.8082 22.0815L24.9473 16.0572Z" stroke="#1B7694" stroke-width="2.16776" stroke-linecap="round" stroke-linejoin="round"/>
<path d="M34.6841 15.1743V19.5098" stroke="#1B7694" stroke-width="2.16776" stroke-linecap="round" stroke-linejoin="round"/>
<path d="M36.8516 17.3423H32.5161" stroke="#1B7694" stroke-width="2.16776" stroke-linecap="round" stroke-linejoin="round"/>
<path d="M17.3421 36.8516C18.5393 36.8516 19.5098 35.8811 19.5098 34.6839C19.5098 33.4867 18.5393 32.5161 17.3421 32.5161C16.1449 32.5161 15.1743 33.4867 15.1743 34.6839C15.1743 35.8811 16.1449 36.8516 17.3421 36.8516Z" stroke="#1B7694" stroke-width="2.16776" stroke-linecap="round" stroke-linejoin="round"/>
</svg>
