<svg width="53" height="53" viewBox="0 0 53 53" fill="none" xmlns="http://www.w3.org/2000/svg">
<path d="M10.8389 0.541992H41.1875C46.8743 0.541992 51.4844 5.15206 51.4844 10.8389V41.1875C51.4844 46.8743 46.8743 51.4844 41.1875 51.4844H10.8389C5.15206 51.4844 0.541992 46.8743 0.541992 41.1875V10.8389C0.541992 5.15206 5.15206 0.541992 10.8389 0.541992Z" fill="#E9F6FB"/>
<path d="M10.8389 0.541992H41.1875C46.8743 0.541992 51.4844 5.15206 51.4844 10.8389V41.1875C51.4844 46.8743 46.8743 51.4844 41.1875 51.4844H10.8389C5.15206 51.4844 0.541992 46.8743 0.541992 41.1875V10.8389C0.541992 5.15206 5.15206 0.541992 10.8389 0.541992Z" stroke="#1B7694" stroke-width="1.08388"/>
<path d="M18.426 35.7694V29.2661" stroke="#1B7694" stroke-width="2.16776" stroke-linecap="round" stroke-linejoin="round"/>
<path d="M26.0134 35.7688V22.7622" stroke="#1B7694" stroke-width="2.16776" stroke-linecap="round" stroke-linejoin="round"/>
<path d="M33.6003 35.7682V16.2583" stroke="#1B7694" stroke-width="2.16776" stroke-linecap="round" stroke-linejoin="round"/>
</svg>
