<svg width="291" height="299" viewBox="0 0 291 299" fill="none" xmlns="http://www.w3.org/2000/svg">
<path d="M208.905 293.194C208.905 293.194 201.316 249.976 230.411 237.322C259.506 224.668 242.296 196.205 253.432 200.313C264.567 204.421 279.511 260.332 246.478 295.14C227.608 295.141 208.905 293.194 208.905 293.194Z" fill="url(#paint0_linear_1_2656)"/>
<path d="M149.939 163.469C149.939 176.189 132.612 183.055 109.229 183.055C85.8453 183.055 65.2598 168.329 65.2598 155.61C65.2598 142.89 89.8393 135.969 113.223 135.969C136.606 135.969 149.939 150.749 149.939 163.469Z" fill="url(#paint1_linear_1_2656)"/>
<path d="M59.1349 295.251C59.1349 295.251 17.1079 256.845 60.6988 218.806C54.158 197.217 71.4312 182.033 88.252 190.016C105.073 198 139.5 205.533 144.128 157.118C147.864 118.029 225.197 127.349 240.048 178.15C246.115 198.9 237.986 221.07 220.383 233.621C207.271 242.97 194.147 258.762 205.245 294.985C187.319 294.985 59.1349 295.251 59.1349 295.251Z" fill="url(#paint2_linear_1_2656)"/>
<path d="M238.095 200.313C237.027 200.513 236.033 200.912 235.067 201.381C234.107 201.859 233.185 202.422 232.314 203.057C231.874 203.371 231.463 203.718 231.044 204.059C230.645 204.42 230.229 204.769 229.852 205.155C229.064 205.899 228.365 206.724 227.679 207.562C224.987 210.96 223.094 214.924 221.769 219.005C220.415 223.091 219.658 227.328 219.206 231.565L219.121 232.36L219.06 233.156L218.939 234.748L218.716 237.867L218.496 240.975L218.194 244.078C218.087 245.112 218.013 246.148 217.88 247.18L217.507 250.277L217.324 251.826C217.259 252.342 217.178 252.856 217.106 253.371L216.671 256.463C216.539 257.496 216.348 258.519 216.189 259.548L215.696 262.633L215.151 265.711L214.875 267.25L214.573 268.784L213.976 271.854L213.342 274.919C213.139 275.943 212.894 276.957 212.671 277.977L212.337 279.507L211.984 281.033C211.035 285.1 210.033 289.163 208.906 293.194L209.18 293.293C209.989 291.351 210.726 289.384 211.418 287.401C212.124 285.422 212.773 283.423 213.396 281.416L213.867 279.912L214.312 278.4C214.598 277.389 214.905 276.382 215.171 275.366L215.994 272.32C216.263 271.304 216.508 270.281 216.755 269.259C218.755 261.084 220.237 252.773 221.155 244.386L221.492 241.24L221.73 238.083L221.963 234.938L222.07 233.398L222.124 232.628L222.202 231.862C222.309 230.84 222.397 229.816 222.545 228.801C222.615 228.293 222.671 227.782 222.752 227.277L223.003 225.761C223.077 225.254 223.178 224.753 223.28 224.252C223.383 223.752 223.472 223.247 223.586 222.75L223.938 221.259C224.044 220.758 224.2 220.275 224.329 219.781C225.411 215.854 226.947 212.044 229.172 208.646C229.739 207.807 230.326 206.975 230.979 206.198C231.292 205.796 231.644 205.431 231.982 205.049C232.339 204.687 232.69 204.317 233.07 203.978C233.815 203.283 234.607 202.63 235.458 202.058C236.304 201.486 237.208 200.958 238.161 200.598L238.095 200.313Z" fill="#1B7694"/>
<path d="M219.041 296.257C218.565 295.402 218.207 294.5 217.907 293.6C217.61 292.698 217.394 291.783 217.249 290.869C217.105 289.954 217.038 289.039 217.038 288.132C217.049 287.224 217.122 286.324 217.262 285.438C217.394 284.549 217.622 283.679 217.868 282.819C218.144 281.963 218.449 281.12 218.822 280.296C218.915 280.091 219.001 279.883 219.099 279.679L219.407 279.074C219.599 278.665 219.831 278.271 220.05 277.873C220.26 277.471 220.523 277.092 220.758 276.701C220.983 276.305 221.261 275.934 221.51 275.55C221.757 275.163 222.046 274.8 222.317 274.427L223.166 273.253C223.747 272.446 224.342 271.654 224.878 270.809C225.97 269.14 227.003 267.425 227.866 265.601C228.326 264.71 228.693 263.758 229.077 262.828L229.565 261.383C229.652 261.147 229.711 260.896 229.776 260.649L229.969 259.909C230.04 259.666 230.081 259.41 230.128 259.158L230.265 258.403C230.304 258.15 230.322 257.89 230.35 257.636C230.378 257.382 230.404 257.128 230.401 256.867C230.401 256.607 230.42 256.355 230.402 256.095C230.379 255.835 230.376 255.581 230.335 255.324C230.293 255.067 230.252 254.815 230.178 254.566C230.118 254.317 230.026 254.073 229.897 253.844L229.788 253.889C229.815 254.365 229.752 254.842 229.644 255.304C229.541 255.766 229.408 256.218 229.25 256.662C229.179 256.884 229.092 257.104 229.001 257.323C228.91 257.541 228.829 257.759 228.733 257.973C228.527 258.402 228.349 258.83 228.126 259.247C227.901 259.665 227.701 260.084 227.462 260.493L226.757 261.717C226.25 262.52 225.771 263.326 225.231 264.109L224.837 264.699C224.707 264.896 224.584 265.096 224.442 265.289L223.619 266.451C223.104 267.244 222.49 267.984 221.948 268.763C221.808 268.956 221.673 269.15 221.529 269.341L221.09 269.907C220.795 270.282 220.514 270.669 220.226 271.049L219.343 272.231C219.047 272.649 218.735 273.055 218.462 273.494C217.887 274.347 217.357 275.236 216.885 276.162C216.654 276.628 216.407 277.084 216.21 277.569L215.904 278.29C215.807 278.532 215.722 278.781 215.631 279.026C215.256 280.004 215.002 281.032 214.778 282.059C214.691 282.58 214.588 283.096 214.546 283.625C214.521 283.888 214.486 284.148 214.472 284.412L214.438 285.203C214.429 286.259 214.495 287.314 214.677 288.348L214.829 289.118C214.889 289.373 214.961 289.625 215.026 289.876C215.17 290.377 215.329 290.871 215.524 291.352C215.907 292.313 216.379 293.231 216.954 294.072C217.524 294.913 218.178 295.694 218.953 296.335L219.041 296.257Z" fill="#1B7694"/>
<mask id="mask0_1_2656" style="mask-type:luminance" maskUnits="userSpaceOnUse" x="28" y="233" width="108" height="63">
<path d="M28.3982 295.025H135.347V233.678H28.3982L28.3982 295.025Z" fill="white"/>
</mask>
<g mask="url(#mask0_1_2656)">
<path d="M86.6268 299.958C86.6268 299.958 78.5208 252.514 30.8374 245.361C48.2418 259.427 71.3684 299.958 78.9976 299.958C84.7195 300.912 86.6268 299.958 86.6268 299.958Z" fill="#4BB8DA"/>
<path opacity="0.05" d="M59.895 257.075C82.0965 273.45 86.6269 299.958 86.6269 299.958C86.6269 299.958 84.7196 300.911 78.9977 299.958C78.0208 299.958 76.7897 299.292 75.3496 298.104C66.6737 287.09 61.2196 270.415 59.895 257.075Z" fill="#4BB8DA"/>
<path d="M105.7 282.971C105.7 282.971 114.907 260.857 115.787 243.691C106.177 244.406 86.6269 268.725 87.5805 278.5C88.5342 288.275 88.5342 288.275 88.5342 288.275L105.7 282.971Z" fill="#4BB8DA"/>
<path opacity="0.05" d="M102.1 270.046C105.804 265.046 109.767 261.964 113.141 260.068C110.133 272.322 105.7 282.971 105.7 282.971L92.8163 286.952C90.9697 284.097 89.1825 281.309 87.6137 278.841C87.6026 278.729 87.5916 278.616 87.5805 278.501C87.1087 273.664 91.6569 265.269 97.5361 257.932C100.619 263.807 102.1 270.046 102.1 270.046Z" fill="#4BB8DA"/>
<path d="M106.629 301.388C106.629 301.388 127.158 279.607 133.265 258.95C115.953 261.096 95.2102 278.5 94.4951 293.997C94.7337 304.011 106.629 301.388 106.629 301.388Z" fill="#4BB8DA"/>
<path opacity="0.05" d="M106.832 272.209C108.839 276.446 112.14 284.705 112.767 294.251C109.189 298.672 106.629 301.388 106.629 301.388C106.629 301.388 94.7334 304.011 94.4951 293.997C94.8393 286.538 99.8244 278.638 106.832 272.209Z" fill="#4BB8DA"/>
<path d="M102.614 301.682C102.614 301.682 107.069 251.321 67.7307 233.678C60.1014 247.506 72.6113 297.967 97.0707 303.849C102.614 306.595 102.614 301.682 102.614 301.682Z" fill="#4BB8DA"/>
</g>
<path d="M50.4414 287.551C50.4414 287.992 51.0712 288.371 51.1244 288.773C51.1818 289.207 50.6821 289.755 50.8066 290.144C50.9378 290.553 51.6561 290.68 51.868 291.039C52.0784 291.396 51.8533 292.105 52.1497 292.414C52.4279 292.703 53.1323 292.499 53.491 292.747C53.8159 292.972 53.8741 293.716 54.2692 293.907C54.6234 294.079 55.2357 293.665 55.6494 293.81C56.021 293.941 56.2432 294.654 56.6651 294.764C57.0478 294.864 57.5838 294.351 58.0093 294.434C58.3991 294.509 58.7076 295.189 59.1345 295.251C59.5286 295.308 60.0132 294.745 60.4398 294.79C60.8374 294.832 61.1959 295.486 61.6224 295.518C62.0229 295.548 62.4733 294.956 62.9002 294.977C63.3022 294.998 63.6923 295.632 64.1178 295.645C64.5208 295.656 64.947 295.046 65.3721 295.051C65.7765 295.056 66.1881 295.676 66.6125 295.675C67.0176 295.673 67.4263 295.05 67.85 295.043C68.2559 295.037 68.6835 295.646 69.1068 295.635C69.4995 295.624 69.865 294.993 70.2402 294.981C70.6332 294.967 71.0395 295.571 71.4132 295.556C71.8069 295.539 72.1629 294.903 72.5359 294.884C72.9307 294.864 73.3483 295.46 73.7203 295.436C74.1158 295.411 74.4568 294.767 74.8277 294.738C75.2239 294.707 75.6579 295.29 76.0267 295.254C76.4236 295.216 76.7403 294.559 77.107 294.515C77.5046 294.467 77.9661 295.028 78.3292 294.972C78.7275 294.911 79.0021 294.235 79.3606 294.164C79.7582 294.085 80.2654 294.604 80.6166 294.512C81.0122 294.409 81.2037 293.705 81.5439 293.584C81.9319 293.446 82.52 293.865 82.8406 293.703C83.208 293.516 83.2144 292.789 83.5015 292.568C83.8218 292.32 84.5154 292.489 84.7465 292.193C84.9858 291.887 84.6652 291.237 84.8214 290.874C84.9701 290.529 85.6588 290.348 85.7433 289.948C85.82 289.586 85.2733 289.11 85.3061 288.699C85.3357 288.329 85.9552 287.963 85.9552 287.551C85.9552 287.147 85.3214 286.803 85.2615 286.423C85.1991 286.028 85.6913 285.496 85.5657 285.128C85.4384 284.755 84.728 284.649 84.5383 284.305C84.351 283.966 84.6342 283.294 84.3874 282.983C84.1495 282.683 83.443 282.819 83.152 282.546C82.8752 282.286 82.9562 281.559 82.6327 281.325C82.3271 281.103 81.6752 281.414 81.3289 281.214C81.0022 281.026 80.9326 280.296 80.5706 280.129C80.2286 279.97 79.6398 280.392 79.2671 280.252C78.9141 280.119 78.74 279.408 78.3606 279.291C77.9996 279.181 77.4675 279.675 77.0834 279.58C76.7164 279.489 76.4686 278.801 76.0809 278.724C75.7093 278.65 75.2246 279.193 74.8345 279.132C74.46 279.074 74.1576 278.409 73.7663 278.363C73.389 278.319 72.9446 278.896 72.5523 278.863C72.1732 278.832 71.828 278.188 71.4353 278.167C71.0552 278.147 70.645 278.75 70.252 278.74C69.8707 278.731 69.4913 278.107 69.0986 278.107C68.6814 278.107 68.2755 278.731 67.8654 278.742C67.4474 278.753 67.0091 278.152 66.5997 278.174C66.1817 278.197 65.8097 278.843 65.4017 278.878C64.9841 278.913 64.5123 278.338 64.106 278.385C63.6895 278.434 63.3578 279.102 62.9541 279.164C62.539 279.226 62.0304 278.685 61.6299 278.761C61.2165 278.84 60.9344 279.531 60.5382 279.623C60.1274 279.719 59.5774 279.222 59.1862 279.332C58.7789 279.447 58.5596 280.161 58.1755 280.292C57.7739 280.428 57.1765 279.992 56.8017 280.145C56.4076 280.306 56.275 281.042 55.9126 281.221C55.5299 281.41 54.8773 281.066 54.5324 281.276C54.1661 281.499 54.1601 282.246 53.8395 282.491C53.4982 282.753 52.7888 282.557 52.5028 282.843C52.1989 283.147 52.3851 283.868 52.1476 284.2C51.899 284.547 51.1672 284.596 50.996 284.973C50.8219 285.356 51.2613 285.95 51.1729 286.364C51.0862 286.766 50.4414 287.118 50.4414 287.551Z" fill="#FED69D"/>
<path opacity="0.05" d="M50.4414 287.551C50.4414 287.119 51.0862 286.767 51.1729 286.363C51.2613 285.949 50.8219 285.355 50.996 284.971C51.1672 284.595 51.899 284.545 52.1476 284.198C52.3851 283.867 52.1993 283.146 52.5028 282.842C52.7888 282.556 53.4982 282.751 53.8395 282.49C54.1601 282.244 54.1665 281.497 54.5324 281.274C54.8773 281.065 55.5299 281.409 55.9123 281.219C56.2746 281.04 56.4076 280.304 56.8014 280.143C57.1762 279.99 57.7736 280.426 58.1751 280.29C58.5592 280.16 58.7789 279.445 59.1858 279.33C59.2925 279.3 59.4112 279.317 59.5354 279.353C59.3852 279.702 59.4865 280.263 59.2846 280.544C59.0361 280.891 58.3042 280.94 58.133 281.317C57.959 281.7 58.3984 282.295 58.3099 282.708C58.2233 283.112 57.5785 283.464 57.5785 283.897C57.5785 284.338 58.2083 284.717 58.2614 285.119C58.3189 285.553 57.8192 286.101 57.9437 286.49C58.0749 286.899 58.7932 287.026 59.005 287.385C59.2154 287.742 58.9904 288.451 59.2868 288.76C59.565 289.049 60.2693 288.845 60.6285 289.093C60.9534 289.318 61.0115 290.062 61.4066 290.253C61.7608 290.425 62.3731 290.011 62.7865 290.156C63.1581 290.287 63.3803 291 63.8022 291.11C64.1849 291.209 64.7209 290.697 65.1464 290.78C65.5362 290.855 65.8447 291.535 66.2716 291.597C66.6656 291.654 67.1503 291.09 67.5769 291.136C67.9745 291.178 68.3329 291.832 68.7595 291.864C69.16 291.894 69.6104 291.302 70.0373 291.323C70.4392 291.343 70.8294 291.978 71.2549 291.99C71.6579 292.002 72.0841 291.391 72.5092 291.396C72.9136 291.401 73.3252 292.022 73.7496 292.02C74.1547 292.019 74.5634 291.396 74.9871 291.389C75.393 291.382 75.8206 291.992 76.2439 291.98C76.6366 291.97 77.0021 291.339 77.3773 291.326C77.7703 291.313 78.1765 291.917 78.5503 291.901C78.944 291.885 79.2999 291.248 79.673 291.229C80.0678 291.209 80.4854 291.805 80.8574 291.782C81.2529 291.757 81.5938 291.112 81.9647 291.083C82.361 291.052 82.795 291.636 83.1638 291.6C83.5607 291.562 83.8774 290.905 84.244 290.86C84.4159 290.839 84.5992 290.933 84.7818 291.041C84.7444 291.411 84.952 291.929 84.7458 292.193C84.5147 292.488 83.8211 292.319 83.5008 292.567C83.2137 292.788 83.2073 293.516 82.8399 293.702C82.5193 293.865 81.9309 293.445 81.5432 293.583C81.2033 293.704 81.0118 294.408 80.6159 294.511C80.2647 294.603 79.7575 294.084 79.3599 294.163C79.0014 294.234 78.7268 294.91 78.3288 294.971C77.9657 295.027 77.5043 294.466 77.1066 294.514C76.74 294.559 76.4233 295.216 76.0263 295.254C75.6576 295.29 75.2232 294.706 74.8273 294.737C74.4564 294.766 74.1155 295.411 73.72 295.436C73.3476 295.459 72.9304 294.863 72.5356 294.884C72.1625 294.903 71.8066 295.539 71.4129 295.556C71.0387 295.571 70.6329 294.967 70.2399 294.981C69.8647 294.994 69.4991 295.624 69.1065 295.635C68.6831 295.647 68.2555 295.037 67.8497 295.043C67.426 295.05 67.0173 295.673 66.6121 295.675C66.1877 295.676 65.7762 295.056 65.3717 295.051C64.947 295.046 64.5208 295.657 64.1174 295.645C63.6916 295.632 63.3018 294.997 62.8999 294.978C62.4733 294.956 62.0225 295.548 61.622 295.518C61.1951 295.486 60.8371 294.832 60.4394 294.79C60.0125 294.744 59.5282 295.307 59.1341 295.25C58.7072 295.189 58.3987 294.509 58.0089 294.433C57.5835 294.351 57.0474 294.863 56.6648 294.764C56.2429 294.654 56.0207 293.941 55.6491 293.81C55.2357 293.665 54.623 294.079 54.2689 293.907C53.8737 293.715 53.8156 292.972 53.4907 292.747C53.1319 292.499 52.4272 292.703 52.1494 292.413C51.853 292.104 52.078 291.396 51.8676 291.039C51.6561 290.68 50.9375 290.552 50.8063 290.144C50.6814 289.756 51.1814 289.207 51.124 288.772C51.0716 288.371 50.4414 287.992 50.4414 287.551Z" fill="#0C010C"/>
<path opacity="0.05" d="M59.7102 283.775C59.7555 284.195 60.4798 284.349 60.8029 284.681C61.0808 284.967 61.0961 285.679 61.5333 285.881C61.9071 286.054 62.5283 285.642 62.9905 285.741C63.4039 285.829 63.7673 286.463 64.2313 286.484C64.6603 286.503 65.089 285.907 65.5455 285.862C66.0016 285.816 66.5484 286.314 66.9639 286.21C67.4136 286.098 67.634 285.405 68.0199 285.237C68.4511 285.048 69.1472 285.327 69.4764 285.084C69.8612 284.8 69.7239 284.1 69.9347 283.765C70.1797 283.376 70.8559 283.082 70.8106 282.663C70.7653 282.243 70.0409 282.09 69.7178 281.757C69.44 281.471 69.4247 280.759 68.9874 280.557C68.6137 280.384 67.9924 280.796 67.5302 280.697C67.1169 280.609 66.7534 279.975 66.2895 279.954C65.8604 279.935 65.4317 280.53 64.9752 280.576C64.5191 280.622 63.9724 280.124 63.5569 280.228C63.1072 280.34 62.8868 281.033 62.5009 281.201C62.0694 281.389 61.3735 281.11 61.0444 281.353C60.6595 281.638 60.7969 282.338 60.5861 282.673C60.3411 283.062 59.6649 283.356 59.7102 283.775Z" fill="#0C010C"/>
<path opacity="0.05" d="M72.3049 279.544C72.2425 279.257 72.2247 278.981 72.2411 278.718C72.3435 278.795 72.4465 278.854 72.5525 278.863C72.9448 278.895 73.3891 278.318 73.7665 278.362C74.1577 278.408 74.4601 279.073 74.8346 279.131C75.2248 279.192 75.7094 278.649 76.081 278.723C76.4687 278.799 76.7166 279.488 77.0836 279.579C77.468 279.674 77.9998 279.18 78.3607 279.291C78.7405 279.407 78.9142 280.118 79.2673 280.251C79.6399 280.392 80.2284 279.969 80.5708 280.128C80.9328 280.296 81.002 281.025 81.329 281.213C81.6304 281.387 82.1632 281.174 82.4977 281.262C82.4478 281.314 82.3989 281.366 82.3436 281.413C82.5337 281.53 82.7124 281.666 82.8825 281.813C82.9506 282.09 82.992 282.395 83.1518 282.545C83.2755 282.661 83.4749 282.703 83.681 282.736C83.9061 283.093 84.0755 283.482 84.165 283.892C84.532 285.575 83.4653 286.939 81.7826 286.939C80.7416 286.939 79.7091 286.416 78.9859 285.619C78.569 286.269 77.8325 286.683 76.9077 286.683C75.2251 286.683 73.5639 285.319 73.1969 283.636C73.025 282.847 73.1709 282.131 73.545 281.59C72.9355 281.049 72.4772 280.333 72.3049 279.544Z" fill="#0C010C"/>
<path d="M73.5195 278.634C73.8865 280.316 75.5477 281.68 77.2304 281.68C78.913 281.68 79.9797 280.316 79.6127 278.634C79.2457 276.951 77.5845 275.587 75.9019 275.587C74.2193 275.587 73.1526 276.951 73.5195 278.634Z" fill="url(#paint3_linear_1_2656)"/>
<path d="M78.2056 278.023C78.5726 279.705 80.2338 281.069 81.9164 281.069C83.599 281.069 84.6657 279.705 84.2987 278.023C83.9318 276.34 82.2705 274.976 80.5879 274.976C78.9053 274.976 77.8386 276.34 78.2056 278.023Z" fill="url(#paint4_linear_1_2656)"/>
<path d="M79.2865 282.981C79.6535 284.664 81.3147 286.028 82.9973 286.028C84.68 286.028 85.7467 284.664 85.3797 282.981C85.0127 281.299 83.3515 279.935 81.6689 279.935C79.9866 279.935 78.9199 281.299 79.2865 282.981Z" fill="url(#paint5_linear_1_2656)"/>
<path d="M74.4115 282.726C74.7785 284.408 76.4397 285.773 78.1223 285.773C79.805 285.773 80.8717 284.408 80.5047 282.726C80.1377 281.043 78.4765 279.679 76.7938 279.679C75.1116 279.679 74.0449 281.043 74.4115 282.726Z" fill="url(#paint6_linear_1_2656)"/>
<path d="M77.8181 280.454C78.0374 281.46 79.0303 282.275 80.0357 282.275C81.041 282.275 81.6787 281.459 81.4594 280.454C81.24 279.448 80.2472 278.633 79.2418 278.633C78.2364 278.633 77.5988 279.449 77.8181 280.454Z" fill="url(#paint7_linear_1_2656)"/>
<mask id="mask1_1_2656" style="mask-type:luminance" maskUnits="userSpaceOnUse" x="156" y="250" width="80" height="46">
<path d="M156.339 295.746H235.473V250.354H156.339V295.746Z" fill="white"/>
</mask>
<g mask="url(#mask1_1_2656)">
<path d="M199.424 299.396C199.424 299.396 193.426 264.291 158.144 258.998C171.022 269.407 188.133 299.396 193.779 299.396C198.012 300.101 199.424 299.396 199.424 299.396Z" fill="#4BB8DA"/>
<path opacity="0.05" d="M179.644 267.666C196.071 279.782 199.423 299.396 199.423 299.396C199.423 299.396 198.012 300.102 193.778 299.396C193.055 299.396 192.144 298.904 191.079 298.025C184.66 289.875 180.624 277.537 179.644 267.666Z" fill="#0C010C"/>
<path d="M213.537 286.827C213.537 286.827 220.349 270.465 221 257.763C213.889 258.293 199.424 276.286 200.129 283.519C200.835 290.752 200.835 290.752 200.835 290.752L213.537 286.827Z" fill="#4BB8DA"/>
<path opacity="0.05" d="M210.872 277.264C213.613 273.564 216.545 271.284 219.042 269.88C216.816 278.948 213.536 286.827 213.536 286.827L204.003 289.773C202.637 287.66 201.314 285.597 200.154 283.771C200.145 283.688 200.137 283.604 200.129 283.519C199.78 279.941 203.145 273.729 207.495 268.3C209.777 272.647 210.872 277.264 210.872 277.264Z" fill="#0C010C"/>
<path d="M214.224 300.455C214.224 300.455 229.413 284.338 233.932 269.054C221.122 270.642 205.774 283.52 205.245 294.986C205.422 302.395 214.224 300.455 214.224 300.455Z" fill="#4BB8DA"/>
<path opacity="0.05" d="M214.374 278.864C215.858 281.999 218.301 288.11 218.765 295.174C216.117 298.444 214.224 300.454 214.224 300.454C214.224 300.454 205.422 302.395 205.245 294.985C205.5 289.466 209.188 283.621 214.374 278.864Z" fill="#0C010C"/>
<path d="M211.252 300.671C211.252 300.671 214.549 263.408 185.442 250.354C179.796 260.586 189.053 297.922 207.151 302.275C211.252 304.306 211.252 300.671 211.252 300.671Z" fill="#4BB8DA"/>
</g>
<path d="M179.651 294.899C173.312 294.662 166.973 294.522 160.633 294.44C157.464 294.394 154.294 294.372 151.124 294.351L141.615 294.338C135.276 294.347 128.937 294.416 122.597 294.482C116.258 294.538 109.919 294.592 103.58 294.602L27.5078 294.899V295.775L103.58 296.072C109.919 296.083 116.258 296.136 122.597 296.192C128.937 296.258 135.276 296.327 141.615 296.336L151.124 296.323C154.294 296.302 157.464 296.28 160.633 296.234C166.973 296.152 173.312 296.012 179.651 295.775V294.899Z" fill="#26A9D3"/>
<path d="M139.157 295.189C139.716 292.054 139.96 288.96 140.046 285.834C140.053 285.054 140.078 284.274 140.072 283.495L140.028 281.158C139.947 279.602 139.877 278.046 139.705 276.499L139.595 275.337C139.555 274.95 139.492 274.566 139.441 274.18C139.332 273.41 139.235 272.639 139.115 271.871C138.818 270.344 138.586 268.807 138.191 267.303C137.53 264.266 136.52 261.322 135.447 258.421C136.406 261.365 137.296 264.333 137.834 267.379C138.168 268.887 138.338 270.425 138.574 271.948C138.662 272.714 138.729 273.483 138.807 274.25C138.842 274.634 138.889 275.016 138.914 275.401L138.979 276.555C139.088 278.092 139.097 279.634 139.117 281.172L139.07 283.48C139.046 284.249 138.991 285.016 138.954 285.784C138.912 286.551 138.829 287.316 138.769 288.081C138.695 288.846 138.601 289.608 138.511 290.369C138.306 291.883 138.063 293.417 137.735 294.871L139.157 295.189Z" fill="url(#paint8_linear_1_2656)"/>
<path d="M143.854 295.364C143.859 293.857 143.791 292.394 143.691 290.916C143.589 289.443 143.445 287.972 143.258 286.508C142.888 283.58 142.333 280.673 141.546 277.828C140.738 274.991 139.7 272.201 138.208 269.65C137.474 268.371 136.607 267.164 135.606 266.084C134.607 265.004 133.47 264.051 132.208 263.304C133.438 264.103 134.526 265.096 135.469 266.205C136.415 267.313 137.219 268.537 137.889 269.827C139.254 272.399 140.161 275.187 140.84 278.01C141.498 280.844 141.926 283.727 142.17 286.625C142.295 288.074 142.376 289.526 142.416 290.978C142.454 292.425 142.46 293.893 142.397 295.315L143.854 295.364Z" fill="url(#paint9_linear_1_2656)"/>
<path d="M135.344 295.14C135.534 293.385 135.648 291.655 135.716 289.91C135.78 288.168 135.791 286.424 135.714 284.682C135.634 282.941 135.479 281.198 135.137 279.486C134.964 278.631 134.754 277.782 134.444 276.965C134.135 276.151 133.74 275.358 133.176 274.698C133.692 275.396 134.024 276.203 134.271 277.023C134.519 277.845 134.667 278.694 134.778 279.545C134.995 281.248 135.027 282.971 134.985 284.688C134.941 286.406 134.809 288.122 134.626 289.831C134.439 291.536 134.203 293.25 133.903 294.92L135.344 295.14Z" fill="url(#paint10_linear_1_2656)"/>
<path d="M146.635 294.869C146.523 293.132 146.497 291.349 146.528 289.586C146.56 287.818 146.664 286.051 146.86 284.293C147.059 282.536 147.355 280.788 147.825 279.082C148.067 278.232 148.354 277.394 148.715 276.585C149.075 275.777 149.509 274.995 150.068 274.3C149.463 274.956 148.971 275.714 148.551 276.504C148.131 277.297 147.782 278.127 147.477 278.972C146.883 280.667 146.462 282.42 146.139 284.186C145.819 285.954 145.591 287.738 145.436 289.527C145.282 291.322 145.185 293.104 145.178 294.928L146.635 294.869Z" fill="#1B7694"/>
<path d="M147.907 294.733C147.608 293.423 147.376 292.039 147.187 290.675L147.045 289.646C147.001 289.303 146.969 288.958 146.929 288.614C146.853 287.925 146.776 287.237 146.73 286.545C146.683 285.853 146.606 285.163 146.584 284.47L146.49 282.391C146.474 281.697 146.475 281.004 146.466 280.31L146.458 279.269L146.49 278.228C146.636 272.68 147.318 267.127 148.727 261.744L149.305 259.74L149.594 258.738C149.688 258.403 149.783 258.068 149.909 257.743C150.382 256.434 150.837 255.124 151.325 253.813C152.327 251.196 153.295 248.564 154.081 245.873L154.381 244.866C154.485 244.532 154.581 244.195 154.661 243.853L155.176 241.815C155.327 241.131 155.458 240.442 155.6 239.756C155.678 239.414 155.724 239.066 155.776 238.719L155.931 237.68C155.992 237.335 156.009 236.983 156.044 236.635L156.137 235.588C156.145 234.887 156.199 234.186 156.142 233.486L156.117 232.961C156.105 232.786 156.075 232.613 156.055 232.439L155.987 231.918C155.956 231.745 155.914 231.575 155.877 231.403C155.721 230.727 155.511 230.033 155.067 229.486C155.498 230.042 155.691 230.737 155.833 231.413C155.865 231.584 155.904 231.754 155.931 231.926L155.986 232.446C156.003 232.619 156.029 232.792 156.037 232.966L156.05 233.489C156.092 234.185 156.023 234.882 156 235.578L155.885 236.618C155.843 236.964 155.818 237.311 155.75 237.654L155.573 238.685C155.514 239.028 155.46 239.373 155.376 239.712C155.22 240.391 155.074 241.073 154.909 241.75L154.353 243.767C154.266 244.105 154.163 244.438 154.052 244.769L153.732 245.765C152.892 248.425 151.871 251.025 150.817 253.608C150.301 254.906 149.809 256.227 149.304 257.537C149.17 257.862 149.067 258.198 148.964 258.534L148.65 259.54L148.022 261.553C146.48 266.963 145.667 272.569 145.396 278.19L145.341 279.244L145.326 280.3C145.319 281.004 145.303 281.708 145.305 282.412L145.354 284.525C145.361 285.229 145.424 285.932 145.456 286.636C145.488 287.34 145.551 288.043 145.613 288.745C145.645 289.096 145.671 289.448 145.708 289.799L145.83 290.851C145.996 292.259 146.193 293.641 146.486 295.065L147.907 294.733Z" fill="#1B7694"/>
<path d="M109.957 106.71C109.957 106.71 107.422 127.473 109.957 131.679C112.492 135.885 123.318 138.739 125.057 131.679C126.62 125.331 126.833 102.956 125.057 101.956L109.957 106.71Z" fill="url(#paint11_linear_1_2656)"/>
<path d="M141.603 278.948C141.603 278.948 145.991 292.345 145.067 294.077C144.143 295.809 142.18 296.337 142.18 296.337H110.652C110.652 296.337 106.956 294.77 108.457 292.576C109.959 290.381 129.592 278.486 129.592 278.486L141.603 278.948Z" fill="#2A305B"/>
<path d="M159.699 281.775C159.699 281.775 155.374 289.688 155.342 291.734C155.318 293.251 156.932 295.048 157.768 295.877C158.066 296.171 158.465 296.337 158.883 296.337H173.736C174.202 296.337 174.649 296.155 174.977 295.825C175.953 294.845 177.869 292.676 177.282 291.267C176.504 289.4 173.703 281.775 173.703 281.775H159.699Z" fill="#2A305B"/>
<path d="M126.311 139.195C126.311 139.195 122.221 200.846 123.213 208.425C124.204 216.003 124.371 279.267 125.986 280.256C127.602 281.244 141.279 281.607 142.759 280.256C143.662 272.691 146.946 224.444 146.156 222.911L149.938 186.501C149.938 186.501 158.245 274.084 158.904 282.168C164.794 286.381 171.839 284.481 174.06 282.168C174.06 282.168 177.212 188.656 178.2 181.736C179.189 174.817 183.096 155.033 177.428 145.148C173.804 137.9 126.311 139.195 126.311 139.195Z" fill="#42417D"/>
<path d="M126.31 139.195C126.31 139.195 125.774 147.275 125.138 157.944C132.465 159.582 145.52 161.17 158.712 156.255C171.582 152.082 177.258 156.88 180.39 162.729C180.607 156.249 180.018 149.666 177.429 145.148C173.804 137.9 126.31 139.195 126.31 139.195Z" fill="url(#paint12_linear_1_2656)"/>
<path d="M187.617 100.058C187.617 100.058 192.302 119.631 190.022 121.531C187.741 123.431 176.085 124.445 176.465 124.445C176.845 124.445 175.832 96.3179 175.832 96.3179L187.617 100.058Z" fill="url(#paint13_linear_1_2656)"/>
<path d="M135.585 58.471C135.585 58.471 137.011 58.3373 137.392 59.2421C137.773 60.1469 136.296 61.1947 136.296 61.1947L135.585 58.471Z" fill="url(#paint14_linear_1_2656)"/>
<path d="M131.595 36.0706C131.595 36.0706 119.362 26.6689 124.191 15.6167C126.874 14.1145 132.906 18.8357 145.02 13.7924C150.374 12.2903 152.305 13.4704 153.486 18.1919C155.417 17.5482 160.568 17.5482 160.246 23.3425C159.924 29.1368 159.148 42.2394 156.225 43.7419C153.302 45.2445 147.262 44.6967 147.262 44.6967L131.595 36.0706Z" fill="#641360"/>
<path d="M137.256 51.5274V58.2846L133.202 60.9031L147.899 69.0961L157.696 58.4537L156.173 43.2241C156.118 42.6827 155.945 42.1602 155.648 41.7041C155.195 41.0062 154.542 39.417 154.571 36.071C152.122 37 146.04 39.7875 146.04 39.7875L137.256 51.5274Z" fill="#FCB0AA"/>
<path d="M150.999 49.721C146.592 49.1597 142.814 48.7378 139.582 48.4189L137.256 51.5274V58.2843C137.256 58.2843 148.918 59.6677 150.999 49.721Z" fill="url(#paint15_linear_1_2656)"/>
<path d="M135.291 58.5365C135.652 58.3735 136.075 58.5172 136.261 58.8667C137.167 60.5675 140.099 65.1186 145.45 64.8932C153.027 64.819 156.356 56.4705 158.217 56.4705C160.077 56.4705 181.177 65.7948 182.953 70.0923C184.956 74.9376 188.722 95.6687 188.346 101.276C186.904 103.783 180.446 104.529 177.13 103.991C177.13 103.991 179.834 147.144 181.186 149.328C182.537 151.512 179.979 151.892 177.796 151.892C175.612 151.892 130.827 161.81 123.237 148.291C122.405 146.316 125.242 135.082 125.138 130.195C125.034 125.308 124.628 112.916 124.628 112.916C124.628 112.916 118.691 113.557 109.229 108.254C110.165 97.128 113.284 70.3006 115.572 68.3248C117.598 66.5755 132.014 60.0165 135.291 58.5365Z" fill="url(#paint16_linear_1_2656)"/>
<path d="M180.48 151.568C176.967 149.631 168.226 147.447 149.523 149.227C133.059 150.794 127.127 140.824 125.005 132.807C124.465 138.281 122.531 146.616 123.237 148.292C130.828 161.81 175.612 151.893 177.796 151.893C178.735 151.893 179.744 151.822 180.48 151.568Z" fill="url(#paint17_linear_1_2656)"/>
<path d="M182.485 103.937C179.543 95.1469 173.682 78.096 174.317 83.6827C175.161 91.1094 179.534 150.692 179.534 150.692L179.678 151.763C181.13 151.523 182.147 150.882 181.186 149.329C179.834 147.145 177.13 103.992 177.13 103.992C178.552 104.222 180.551 104.216 182.485 103.937Z" fill="url(#paint18_linear_1_2656)"/>
<path d="M124.359 84.2827C123.233 83.5787 121.015 102.884 119.137 112.285C122.64 113.128 124.628 112.916 124.628 112.916C124.628 112.916 124.757 116.858 124.888 121.171C125.463 121.366 125.825 121.483 125.825 121.483C125.825 121.483 125.825 85.1993 124.359 84.2827Z" fill="url(#paint19_linear_1_2656)"/>
<path d="M105.988 92.0342C105.988 92.0342 113.253 105.975 116.348 111.856C120.283 118.768 125.418 126.109 125.431 129.695C125.445 133.281 123.282 139.013 116.219 137.195C111.9 136.083 108.565 132.643 107.391 128.34C105.01 119.62 100.9 102.882 98.5591 101.01C95.4642 98.5336 89.9962 93.5817 89.1709 90.8994C88.3457 88.2171 92.6785 81.2017 96.599 81.4078C94.9485 76.4559 92.1628 67.617 93.9167 69.0959C95.6707 70.5749 99.3847 80.8918 100.313 81.5109C102.48 82.9553 100.52 74.9081 102.995 75.0112C104.131 75.8368 105.988 92.0342 105.988 92.0342Z" fill="#FCB0AA"/>
<path d="M96.599 81.4077C92.6785 81.2012 88.3457 88.2166 89.1709 90.8993C89.6046 92.3083 91.32 94.344 93.299 96.318C107.135 91.4032 96.599 81.4077 96.599 81.4077Z" fill="url(#paint20_linear_1_2656)"/>
<path d="M99.613 89.0037C100.607 86.1199 96.599 81.4077 96.599 81.4077C92.6785 81.2012 88.3457 88.2166 89.1709 90.8993C89.4477 91.7991 90.2483 92.9546 91.3051 94.186C94.8073 94.9881 98.741 91.533 99.613 89.0037Z" fill="#FCB0AA"/>
<path d="M181.498 113.155C181.498 113.155 177.603 117.252 176.082 116.279C174.562 115.306 169.525 111.547 168.247 112.224C166.969 112.9 172.006 118.087 172.457 119.215C172.908 120.343 173.172 123.349 175.709 124.627C176.215 125.454 177.368 129.063 183.445 128.161C189.521 127.259 194.408 115.832 194.859 114.855C194.929 114.467 194.437 114.575 193.894 114.8C193.596 114.924 193.323 114.576 193.519 114.319C194.498 113.039 195.883 111.003 195.686 109.968C195.385 108.39 193.43 110.369 193.43 110.369C193.43 110.369 196.362 106.776 195.098 106.294C193.834 105.812 191.927 107.488 191.551 107.713C191.25 106.586 191.939 105.233 189.603 106.36C187.266 107.488 181.498 113.155 181.498 113.155Z" fill="#FCB0AA"/>
<path d="M131.826 30.3953C131.469 30.2655 131.091 30.5165 131.074 30.896C130.938 33.9207 130.5 44.7571 131.111 46.7483C131.822 49.0671 133.938 53.3015 137.138 54.0158C140.337 54.7298 147.055 55.8946 150.423 50.6656C151.076 49.6506 151.592 48.6848 151.998 47.7875C153.264 44.9932 153.565 41.8584 152.913 38.8605C152.913 38.8605 155.927 38.2399 155.484 32.9224C155.395 30.5294 151.939 28.4912 150.875 31.9474C150.609 33.5426 149.546 31.9474 149.368 29.7316C147.835 31.5201 137.871 32.5957 131.826 30.3953Z" fill="#FCB0AA"/>
<path d="M155.528 47.2582C155.891 48.3438 156.357 49.26 156.853 50.03L156.172 43.2243C156.118 42.6829 155.944 42.1604 155.648 41.7043C155.268 41.1201 154.75 39.9065 154.609 37.5651C154.609 37.5651 154.033 42.782 155.528 47.2582Z" fill="url(#paint21_linear_1_2656)"/>
<path d="M146.582 218.807L149.939 186.501V169.118C149.939 169.118 142.086 198.935 146.582 218.807Z" fill="url(#paint22_linear_1_2656)"/>
<path d="M176.083 116.279C175.86 116.136 175.56 115.933 175.209 115.694C175.209 115.694 178.908 121.418 180.905 120.356C182.902 119.293 186.066 108.96 186.066 108.96C183.788 110.906 181.499 113.156 181.499 113.156C181.499 113.156 177.603 117.253 176.083 116.279Z" fill="url(#paint23_linear_1_2656)"/>
<g opacity="0.46">
<path d="M105.494 81.3327H15.9042C15.3832 81.3327 14.9609 80.9104 14.9609 80.3894V60.0556C14.9609 59.5346 15.3832 59.1123 15.9042 59.1123H105.494C106.015 59.1123 106.437 59.5346 106.437 60.0556V80.3894C106.437 80.9104 106.015 81.3327 105.494 81.3327Z" fill="#005BE7"/>
<path d="M62.2037 65.1495H24.0972V68.4813H62.2037V65.1495Z" fill="white"/>
<path d="M35.7454 71.964H24.0972V75.2957H35.7454V71.964Z" fill="white"/>
<path d="M46.6006 71.964H41.3887V75.2957H46.6006V71.964Z" fill="white"/>
<path d="M94.7737 76.2335C98.0938 76.2335 100.785 73.542 100.785 70.222C100.785 66.9019 98.0938 64.2104 94.7737 64.2104C91.4537 64.2104 88.7622 66.9019 88.7622 70.222C88.7622 73.542 91.4537 76.2335 94.7737 76.2335Z" fill="url(#paint24_linear_1_2656)"/>
</g>
<g opacity="0.46">
<path d="M105.494 118.327H15.9042C15.3832 118.327 14.9609 117.904 14.9609 117.383V97.0496C14.9609 96.5285 15.3832 96.1063 15.9042 96.1063H105.494C106.015 96.1063 106.437 96.5285 106.437 97.0496V117.383C106.437 117.904 106.015 118.327 105.494 118.327Z" fill="#005BE7"/>
<path d="M62.2037 102.143H24.0972V105.474H62.2037V102.143Z" fill="white"/>
<path d="M35.7454 108.957H24.0972V112.289H35.7454V108.957Z" fill="white"/>
<path d="M46.6006 108.957H41.3887V112.289H46.6006V108.957Z" fill="white"/>
<path d="M94.7737 113.228C98.0938 113.228 100.785 110.537 100.785 107.217C100.785 103.897 98.0938 101.205 94.7737 101.205C91.4537 101.205 88.7622 103.897 88.7622 107.217C88.7622 110.537 91.4537 113.228 94.7737 113.228Z" fill="#8B004A"/>
</g>
<path d="M212.152 66.9283H185.679C185.043 66.9283 184.527 66.4123 184.527 65.776V32.2145C184.527 31.5779 185.043 31.0622 185.679 31.0622H203.704L213.305 40.6629V65.776C213.305 66.4123 212.789 66.9283 212.152 66.9283Z" fill="url(#paint25_linear_1_2656)"/>
<path d="M208.202 61.9936H189.63C189.321 61.9936 189.07 61.7429 189.07 61.4341V50.3105C189.07 50.0013 189.321 49.7509 189.63 49.7509H208.202C208.511 49.7509 208.761 50.0016 208.761 50.3105V61.4337C208.761 61.7429 208.511 61.9936 208.202 61.9936Z" fill="url(#paint26_linear_1_2656)"/>
<path opacity="0.05" d="M203.704 66.9282H212.153C212.789 66.9282 213.305 66.4122 213.305 65.7759V40.6628L210.053 37.4106H203.704V66.9282Z" fill="#0000FF"/>
<path opacity="0.1" d="M205.064 40.6622C205.064 40.6622 210.059 41.0456 213.304 41.4878V40.6622L210.052 37.41L205.064 40.6622Z" fill="#0000FF"/>
<path d="M213.305 40.6622H205.064C204.313 40.6622 203.704 40.0535 203.704 39.302V31.0615L213.305 40.6622Z" fill="url(#paint27_linear_1_2656)"/>
<path d="M197.005 36.2478H188.852C188.585 36.2478 188.368 36.031 188.368 35.7635C188.368 35.496 188.585 35.2792 188.852 35.2792H197.005C197.272 35.2792 197.489 35.496 197.489 35.7635C197.489 36.031 197.272 36.2478 197.005 36.2478Z" fill="url(#paint28_linear_1_2656)"/>
<path opacity="0.26" d="M201.685 39.0598H188.852C188.585 39.0598 188.368 38.843 188.368 38.5755C188.368 38.308 188.585 38.0912 188.852 38.0912H201.685C201.953 38.0912 202.169 38.308 202.169 38.5755C202.169 38.843 201.953 39.0598 201.685 39.0598Z" fill="url(#paint29_linear_1_2656)"/>
<path d="M194.952 57.6231C193.364 57.6231 192.072 56.331 192.072 54.7429C192.072 53.1548 193.364 51.8627 194.952 51.8627C196.541 51.8627 197.833 53.1548 197.833 54.7429C197.833 56.331 196.541 57.6231 194.952 57.6231ZM194.952 52.9087C193.941 52.9087 193.119 53.7315 193.119 54.7429C193.119 55.7543 193.941 56.5771 194.952 56.5771C195.964 56.5771 196.787 55.7543 196.787 54.7429C196.787 53.7315 195.964 52.9087 194.952 52.9087Z" fill="url(#paint30_linear_1_2656)"/>
<g opacity="0.13">
<path d="M197.373 59.8801H192.532C192.244 59.8801 192.009 59.6458 192.009 59.3569C192.009 59.0681 192.244 58.8337 192.532 58.8337H197.373C197.662 58.8337 197.897 59.0681 197.897 59.3569C197.897 59.6458 197.662 59.8801 197.373 59.8801Z" fill="#0000FF"/>
</g>
<g opacity="0.35">
<path d="M215.725 163.385H150.754C149.651 163.385 148.755 162.49 148.755 161.386V100.117C148.755 99.0136 149.65 98.1184 150.754 98.1184H215.725C216.829 98.1184 217.724 99.0132 217.724 100.117V161.387C217.724 162.49 216.829 163.385 215.725 163.385Z" fill="#45CEDE"/>
<path d="M148.755 147.835V161.002C148.755 162.318 149.506 163.385 150.432 163.385H216.047C216.973 163.385 217.724 162.318 217.724 161.002V147.835H148.755Z" fill="#9ACEDE"/>
<path d="M168.861 154.101H153.8V157.119H168.861V154.101Z" fill="#42417D"/>
<path d="M199.091 154.101H196.967V157.119H199.091V154.101Z" fill="#42417D"/>
<path d="M203.609 154.101H201.485V157.119H203.609V154.101Z" fill="#42417D"/>
<path d="M208.128 154.101H206.004V157.119H208.128V154.101Z" fill="#42417D"/>
</g>
<path d="M197.599 142.009H168.595C167.772 142.009 167.104 141.341 167.104 140.517V119.539C167.104 118.715 167.772 118.047 168.595 118.047H197.599C198.423 118.047 199.091 118.715 199.091 119.539V140.517C199.091 141.341 198.423 142.009 197.599 142.009Z" fill="#26A9D3"/>
<path d="M167.236 118.929C167.152 119.115 167.104 119.322 167.104 119.539V140.517C167.104 141.341 167.772 142.009 168.596 142.009H169.877L188.359 128.22L179.525 119.937L167.236 118.929Z" fill="#26A9D3"/>
<path opacity="0.05" d="M199.091 119.539C199.091 118.715 198.423 118.047 197.599 118.047H168.595C167.772 118.047 167.104 118.715 167.104 119.539V121.664L181.211 132.186C182.33 133.021 183.864 133.021 184.983 132.186L199.09 121.664V119.539H199.091Z" fill="#42417D"/>
<path d="M199.091 119.539C199.091 118.715 198.423 118.047 197.599 118.047H168.595C167.772 118.047 167.104 118.715 167.104 119.539C167.104 119.905 167.249 120.257 167.508 120.516L181.521 130.968C182.456 131.665 183.738 131.665 184.673 130.968L198.686 120.516C198.945 120.257 199.091 119.905 199.091 119.539Z" fill="#FED69D"/>
<path d="M175.333 140.438H170.453C170.035 140.438 169.697 140.1 169.697 139.682C169.697 139.264 170.035 138.926 170.453 138.926H175.333C175.751 138.926 176.089 139.264 176.089 139.682C176.089 140.1 175.751 140.438 175.333 140.438Z" fill="url(#paint31_linear_1_2656)"/>
<path d="M183.097 133.716C184.116 133.716 184.941 132.89 184.941 131.872C184.941 130.853 184.116 130.027 183.097 130.027C182.079 130.027 181.253 130.853 181.253 131.872C181.253 132.89 182.079 133.716 183.097 133.716Z" fill="url(#paint32_linear_1_2656)"/>
<path d="M0.000356443 296.141C24.2179 295.473 48.4355 295.12 72.6531 294.861L90.8164 294.686L108.98 294.573L118.061 294.517L127.143 294.495L145.305 294.457L154.387 294.438L163.468 294.46L181.632 294.502C187.686 294.507 193.74 294.577 199.795 294.611C205.849 294.661 211.904 294.678 217.958 294.762L236.122 294.974L254.285 295.267C266.394 295.505 278.502 295.739 290.611 296.141V296.531C278.502 296.933 266.393 297.167 254.285 297.405L236.122 297.698L217.958 297.91C211.904 297.994 205.849 298.011 199.795 298.061C193.741 298.095 187.686 298.165 181.632 298.17L163.468 298.213L154.387 298.234L145.305 298.216L127.142 298.179L118.061 298.156L108.979 298.1L90.816 297.987L72.6527 297.812C48.4352 297.553 24.2176 297.2 0 296.532L0.000356443 296.141Z" fill="#4BB8DA"/>
<path opacity="0.1" d="M88.6752 24.2187C95.363 24.2187 100.785 18.7971 100.785 12.1093C100.785 5.42153 95.363 0 88.6752 0C81.9875 0 76.5659 5.42153 76.5659 12.1093C76.5659 18.7971 81.9875 24.2187 88.6752 24.2187Z" fill="#26A9D3"/>
<defs>
<linearGradient id="paint0_linear_1_2656" x1="228.47" y1="221.049" x2="253.243" y2="330.105" gradientUnits="userSpaceOnUse">
<stop stop-color="#F6F3FF"/>
<stop offset="1" stop-color="#E5D6FF"/>
</linearGradient>
<linearGradient id="paint1_linear_1_2656" x1="104.122" y1="143.857" x2="117.708" y2="203.665" gradientUnits="userSpaceOnUse">
<stop stop-color="#F6F3FF"/>
<stop offset="1" stop-color="#E5D6FF"/>
</linearGradient>
<linearGradient id="paint2_linear_1_2656" x1="129.541" y1="171.25" x2="174.196" y2="367.834" gradientUnits="userSpaceOnUse">
<stop stop-color="#F6F3FF"/>
<stop offset="1" stop-color="#E5D6FF"/>
</linearGradient>
<linearGradient id="paint3_linear_1_2656" x1="74.9925" y1="277.636" x2="78.4181" y2="279.409" gradientUnits="userSpaceOnUse">
<stop stop-color="#F07295"/>
<stop offset="0.9895" stop-color="#F03295"/>
</linearGradient>
<linearGradient id="paint4_linear_1_2656" x1="80.9249" y1="278.687" x2="79.5596" y2="280.905" gradientUnits="userSpaceOnUse">
<stop stop-color="#F07295"/>
<stop offset="0.9895" stop-color="#F03295"/>
</linearGradient>
<linearGradient id="paint5_linear_1_2656" x1="83.8111" y1="285.911" x2="81.9219" y2="279.726" gradientUnits="userSpaceOnUse">
<stop stop-color="#F07295"/>
<stop offset="0.9895" stop-color="#F03295"/>
</linearGradient>
<linearGradient id="paint6_linear_1_2656" x1="77.9844" y1="281.907" x2="79.898" y2="279.265" gradientUnits="userSpaceOnUse">
<stop stop-color="#F07295"/>
<stop offset="0.9895" stop-color="#F03295"/>
</linearGradient>
<linearGradient id="paint7_linear_1_2656" x1="85.0765" y1="291.234" x2="81.2333" y2="278.654" gradientUnits="userSpaceOnUse">
<stop stop-color="#00B56C"/>
<stop offset="0.1429" stop-color="#1DBE69"/>
<stop offset="0.4541" stop-color="#69D462"/>
<stop offset="0.9074" stop-color="#E0F857"/>
<stop offset="1" stop-color="#F9FF55"/>
</linearGradient>
<linearGradient id="paint8_linear_1_2656" x1="136.402" y1="295.025" x2="138.592" y2="258.313" gradientUnits="userSpaceOnUse">
<stop stop-color="#00B56C"/>
<stop offset="0.2158" stop-color="#1DBE75"/>
<stop offset="0.6813" stop-color="#68D58C"/>
<stop offset="1" stop-color="#9EE69D"/>
</linearGradient>
<linearGradient id="paint9_linear_1_2656" x1="137.096" y1="294.998" x2="139.002" y2="263.063" gradientUnits="userSpaceOnUse">
<stop stop-color="#00B56C"/>
<stop offset="0.2158" stop-color="#1DBE75"/>
<stop offset="0.6813" stop-color="#68D58C"/>
<stop offset="1" stop-color="#9EE69D"/>
</linearGradient>
<linearGradient id="paint10_linear_1_2656" x1="133.696" y1="295.042" x2="134.933" y2="274.31" gradientUnits="userSpaceOnUse">
<stop stop-color="#00B56C"/>
<stop offset="0.2158" stop-color="#1DBE75"/>
<stop offset="0.6813" stop-color="#68D58C"/>
<stop offset="1" stop-color="#9EE69D"/>
</linearGradient>
<linearGradient id="paint11_linear_1_2656" x1="124.259" y1="118.963" x2="141.739" y2="118.963" gradientUnits="userSpaceOnUse">
<stop stop-color="#F4919A"/>
<stop offset="1" stop-color="#FCB0AA"/>
</linearGradient>
<linearGradient id="paint12_linear_1_2656" x1="125.137" y1="150.917" x2="180.431" y2="150.917" gradientUnits="userSpaceOnUse">
<stop offset="0.1553" stop-color="#42417D"/>
<stop offset="0.2656" stop-color="#42417D"/>
<stop offset="0.609" stop-color="#353967"/>
</linearGradient>
<linearGradient id="paint13_linear_1_2656" x1="174.236" y1="88.2469" x2="189.517" y2="135.273" gradientUnits="userSpaceOnUse">
<stop stop-color="#F4919A"/>
<stop offset="1" stop-color="#FCB0AA"/>
</linearGradient>
<linearGradient id="paint14_linear_1_2656" x1="136.164" y1="60.8865" x2="136.807" y2="57.5831" gradientUnits="userSpaceOnUse">
<stop stop-color="#6362D7"/>
<stop offset="1" stop-color="#FF8FE2"/>
</linearGradient>
<linearGradient id="paint15_linear_1_2656" x1="132.238" y1="53.3845" x2="177.704" y2="53.3845" gradientUnits="userSpaceOnUse">
<stop stop-color="#F4919A"/>
<stop offset="1" stop-color="#FCB0AA" stop-opacity="0"/>
</linearGradient>
<linearGradient id="paint16_linear_1_2656" x1="139.222" y1="155.449" x2="165.766" y2="19.1321" gradientUnits="userSpaceOnUse">
<stop stop-color="#6362D7"/>
<stop offset="1" stop-color="#FF8FE2"/>
</linearGradient>
<linearGradient id="paint17_linear_1_2656" x1="149.761" y1="157.501" x2="154.898" y2="131.121" gradientUnits="userSpaceOnUse">
<stop stop-color="#5D49D7"/>
<stop offset="1" stop-color="#6F66D8" stop-opacity="0"/>
</linearGradient>
<linearGradient id="paint18_linear_1_2656" x1="171.396" y1="150.151" x2="189.013" y2="59.6828" gradientUnits="userSpaceOnUse">
<stop stop-color="#5D49D7"/>
<stop offset="1" stop-color="#6F66D8" stop-opacity="0"/>
</linearGradient>
<linearGradient id="paint19_linear_1_2656" x1="115.468" y1="151.023" x2="131.65" y2="67.9253" gradientUnits="userSpaceOnUse">
<stop stop-color="#5D49D7"/>
<stop offset="1" stop-color="#6F66D8" stop-opacity="0"/>
</linearGradient>
<linearGradient id="paint20_linear_1_2656" x1="93.8436" y1="88.8605" x2="105.213" y2="88.8605" gradientUnits="userSpaceOnUse">
<stop stop-color="#F4919A"/>
<stop offset="1" stop-color="#FCB0AA" stop-opacity="0"/>
</linearGradient>
<linearGradient id="paint21_linear_1_2656" x1="153.64" y1="43.7975" x2="161.427" y2="43.7975" gradientUnits="userSpaceOnUse">
<stop stop-color="#F4919A"/>
<stop offset="1" stop-color="#FCB0AA" stop-opacity="0"/>
</linearGradient>
<linearGradient id="paint22_linear_1_2656" x1="147.566" y1="258.353" x2="147.566" y2="141.664" gradientUnits="userSpaceOnUse">
<stop offset="0.1553" stop-color="#42417D"/>
<stop offset="0.2656" stop-color="#42417D"/>
<stop offset="0.609" stop-color="#353967"/>
</linearGradient>
<linearGradient id="paint23_linear_1_2656" x1="175.209" y1="114.723" x2="186.066" y2="114.723" gradientUnits="userSpaceOnUse">
<stop stop-color="#F4919A"/>
<stop offset="1" stop-color="#FCB0AA" stop-opacity="0"/>
</linearGradient>
<linearGradient id="paint24_linear_1_2656" x1="89.0941" y1="84.2218" x2="100.457" y2="56.2123" gradientUnits="userSpaceOnUse">
<stop stop-color="#00B56C"/>
<stop offset="0.2158" stop-color="#1DBE75"/>
<stop offset="0.6813" stop-color="#68D58C"/>
<stop offset="1" stop-color="#9EE69D"/>
</linearGradient>
<linearGradient id="paint25_linear_1_2656" x1="181.499" y1="73.6971" x2="223.383" y2="14.2921" gradientUnits="userSpaceOnUse">
<stop stop-color="#F07295"/>
<stop offset="1" stop-color="#F0C66A"/>
</linearGradient>
<linearGradient id="paint26_linear_1_2656" x1="205.52" y1="49.268" x2="169.867" y2="84.9206" gradientUnits="userSpaceOnUse">
<stop stop-color="white"/>
<stop offset="1" stop-color="#AAD7FF"/>
</linearGradient>
<linearGradient id="paint27_linear_1_2656" x1="231.973" y1="16.8296" x2="204.043" y2="39.48" gradientUnits="userSpaceOnUse">
<stop stop-color="#F07295"/>
<stop offset="1" stop-color="#F0C66A"/>
</linearGradient>
<linearGradient id="paint28_linear_1_2656" x1="194.939" y1="33.7529" x2="184.085" y2="44.6069" gradientUnits="userSpaceOnUse">
<stop stop-color="white"/>
<stop offset="1" stop-color="#AAD7FF"/>
</linearGradient>
<linearGradient id="paint29_linear_1_2656" x1="198.267" y1="35.5766" x2="182.079" y2="51.7654" gradientUnits="userSpaceOnUse">
<stop stop-color="white"/>
<stop offset="1" stop-color="#AAD7FF"/>
</linearGradient>
<linearGradient id="paint30_linear_1_2656" x1="192.072" y1="54.7429" x2="197.833" y2="54.7429" gradientUnits="userSpaceOnUse">
<stop stop-color="#F09376"/>
<stop offset="1" stop-color="#F07295"/>
</linearGradient>
<linearGradient id="paint31_linear_1_2656" x1="169.393" y1="139.682" x2="181.872" y2="139.682" gradientUnits="userSpaceOnUse">
<stop stop-color="white"/>
<stop offset="1" stop-color="#AAD7FF"/>
</linearGradient>
<linearGradient id="paint32_linear_1_2656" x1="183.097" y1="144.389" x2="183.097" y2="127.133" gradientUnits="userSpaceOnUse">
<stop stop-color="#FC9250"/>
<stop offset="1" stop-color="#FBE6D1"/>
</linearGradient>
</defs>
</svg>
