<svg width="54" height="54" viewBox="0 0 54 54" fill="none" xmlns="http://www.w3.org/2000/svg">
<rect width="53.3333" height="53.3333" rx="26.6667" fill="#E1E9FE"/>
<path d="M30.6667 35.6667V33.6667C30.6667 32.6059 30.2453 31.5885 29.4952 30.8383C28.745 30.0882 27.7276 29.6667 26.6667 29.6667H20.6667C19.6059 29.6667 18.5885 30.0882 17.8383 30.8383C17.0882 31.5885 16.6667 32.6059 16.6667 33.6667V35.6667" stroke="#176781" stroke-width="2" stroke-linecap="round" stroke-linejoin="round"/>
<path d="M30.6667 17.7957C31.5245 18.018 32.2841 18.5189 32.8264 19.2197C33.3687 19.9205 33.6629 20.7815 33.6629 21.6677C33.6629 22.5538 33.3687 23.4148 32.8264 24.1156C32.2841 24.8164 31.5245 25.3173 30.6667 25.5397" stroke="#176781" stroke-width="2" stroke-linecap="round" stroke-linejoin="round"/>
<path d="M36.6667 35.6676V33.6676C36.6661 32.7813 36.3711 31.9204 35.8281 31.2199C35.2851 30.5195 34.5249 30.0192 33.6667 29.7976" stroke="#176781" stroke-width="2" stroke-linecap="round" stroke-linejoin="round"/>
<path d="M23.6667 25.6667C25.8759 25.6667 27.6667 23.8759 27.6667 21.6667C27.6667 19.4576 25.8759 17.6667 23.6667 17.6667C21.4576 17.6667 19.6667 19.4576 19.6667 21.6667C19.6667 23.8759 21.4576 25.6667 23.6667 25.6667Z" stroke="#176781" stroke-width="2" stroke-linecap="round" stroke-linejoin="round"/>
</svg>
