<svg width="62" height="62" viewBox="0 0 62 62" fill="none" xmlns="http://www.w3.org/2000/svg">
<g filter="url(#filter0_dd_1454_70702)">
<path d="M4.6936 15.959C4.6936 7.66393 11.4181 0.939453 19.7132 0.939453H42.2425C50.5376 0.939453 57.2621 7.66394 57.2621 15.959V38.4883C57.2621 46.7834 50.5376 53.5079 42.2425 53.5079H19.7132C11.4181 53.5079 4.6936 46.7834 4.6936 38.4883V15.959Z" fill="#A6DCED" shape-rendering="crispEdges"/>
<path d="M30.9763 21.75V37.0825" stroke="white" stroke-width="2.19035" stroke-linecap="round" stroke-linejoin="round"/>
<path d="M21.1184 33.7948C20.8279 33.7948 20.5493 33.6794 20.344 33.4741C20.1386 33.2687 20.0232 32.9901 20.0232 32.6997V18.4624C20.0232 18.1719 20.1386 17.8933 20.344 17.688C20.5493 17.4826 20.8279 17.3672 21.1184 17.3672H26.5942C27.7561 17.3672 28.8703 17.8287 29.6919 18.6503C30.5134 19.4718 30.975 20.5861 30.975 21.7479C30.975 20.5861 31.4365 19.4718 32.258 18.6503C33.0796 17.8287 34.1938 17.3672 35.3557 17.3672H40.8315C41.122 17.3672 41.4006 17.4826 41.6059 17.688C41.8113 17.8933 41.9267 18.1719 41.9267 18.4624V32.6997C41.9267 32.9901 41.8113 33.2687 41.6059 33.4741C41.4006 33.6794 41.122 33.7948 40.8315 33.7948H34.2605C33.3891 33.7948 32.5534 34.141 31.9373 34.7571C31.3211 35.3733 30.975 36.209 30.975 37.0804C30.975 36.209 30.6288 35.3733 30.0126 34.7571C29.3965 34.141 28.5608 33.7948 27.6894 33.7948H21.1184Z" stroke="white" stroke-width="2.19035" stroke-linecap="round" stroke-linejoin="round"/>
</g>
<defs>
<filter id="filter0_dd_1454_70702" x="-7.92742e-06" y="0.000730932" width="61.9556" height="61.9556" filterUnits="userSpaceOnUse" color-interpolation-filters="sRGB">
<feFlood flood-opacity="0" result="BackgroundImageFix"/>
<feColorMatrix in="SourceAlpha" type="matrix" values="0 0 0 0 0 0 0 0 0 0 0 0 0 0 0 0 0 0 127 0" result="hardAlpha"/>
<feMorphology radius="1.87744" operator="erode" in="SourceAlpha" result="effect1_dropShadow_1454_70702"/>
<feOffset dy="1.87744"/>
<feGaussianBlur stdDeviation="1.87744"/>
<feComposite in2="hardAlpha" operator="out"/>
<feColorMatrix type="matrix" values="0 0 0 0 0 0 0 0 0 0 0 0 0 0 0 0 0 0 0.1 0"/>
<feBlend mode="normal" in2="BackgroundImageFix" result="effect1_dropShadow_1454_70702"/>
<feColorMatrix in="SourceAlpha" type="matrix" values="0 0 0 0 0 0 0 0 0 0 0 0 0 0 0 0 0 0 127 0" result="hardAlpha"/>
<feMorphology radius="0.938722" operator="erode" in="SourceAlpha" result="effect2_dropShadow_1454_70702"/>
<feOffset dy="3.75489"/>
<feGaussianBlur stdDeviation="2.81617"/>
<feComposite in2="hardAlpha" operator="out"/>
<feColorMatrix type="matrix" values="0 0 0 0 0 0 0 0 0 0 0 0 0 0 0 0 0 0 0.1 0"/>
<feBlend mode="normal" in2="effect1_dropShadow_1454_70702" result="effect2_dropShadow_1454_70702"/>
<feBlend mode="normal" in="SourceGraphic" in2="effect2_dropShadow_1454_70702" result="shape"/>
</filter>
</defs>
</svg>
