<svg width="70" height="70" viewBox="0 0 70 70" fill="none" xmlns="http://www.w3.org/2000/svg">
<path d="M0 15.1974C0 6.8041 6.80409 0 15.1974 0H54.2763C62.6696 0 69.4737 6.80409 69.4737 15.1974V54.2763C69.4737 62.6696 62.6696 69.4737 54.2763 69.4737H15.1974C6.8041 69.4737 0 62.6696 0 54.2763V15.1974Z" fill="#A6DCED"/>
<path d="M34.7368 27.4993V47.7624" stroke="#176781" stroke-width="2.89474" stroke-linecap="round" stroke-linejoin="round"/>
<path d="M21.7103 43.4207C21.3264 43.4207 20.9583 43.2682 20.6869 42.9968C20.4154 42.7254 20.2629 42.3572 20.2629 41.9734V23.1576C20.2629 22.7737 20.4154 22.4056 20.6869 22.1341C20.9583 21.8627 21.3264 21.7102 21.7103 21.7102H28.9471C30.4826 21.7102 31.9552 22.3202 33.0409 23.4059C34.1267 24.4916 34.7366 25.9642 34.7366 27.4997C34.7366 25.9642 35.3466 24.4916 36.4323 23.4059C37.5181 22.3202 38.9906 21.7102 40.5261 21.7102H47.7629C48.1468 21.7102 48.5149 21.8627 48.7864 22.1341C49.0578 22.4056 49.2103 22.7737 49.2103 23.1576V41.9734C49.2103 42.3572 49.0578 42.7254 48.7864 42.9968C48.5149 43.2682 48.1468 43.4207 47.7629 43.4207H39.0787C37.9271 43.4207 36.8227 43.8782 36.0084 44.6925C35.1941 45.5068 34.7366 46.6112 34.7366 47.7628C34.7366 46.6112 34.2792 45.5068 33.4649 44.6925C32.6505 43.8782 31.5461 43.4207 30.3945 43.4207H21.7103Z" stroke="#176781" stroke-width="2.89474" stroke-linecap="round" stroke-linejoin="round"/>
</svg>
