<svg width="70" height="70" viewBox="0 0 70 70" fill="none" xmlns="http://www.w3.org/2000/svg">
<path d="M0 15.1974C0 6.8041 6.80409 0 15.1974 0H54.2763C62.6696 0 69.4737 6.80409 69.4737 15.1974V54.2763C69.4737 62.6696 62.6696 69.4737 54.2763 69.4737H15.1974C6.8041 69.4737 0 62.6696 0 54.2763V15.1974Z" fill="#A6DCED"/>
<path d="M40.5268 47.7636V44.8688C40.5268 43.3334 39.9169 41.8608 38.8311 40.775C37.7454 39.6893 36.2728 39.0793 34.7374 39.0793H26.0531C24.5177 39.0793 23.0451 39.6893 21.9594 40.775C20.8736 41.8608 20.2637 43.3334 20.2637 44.8688V47.7636" stroke="#176781" stroke-width="2.89474" stroke-linecap="round" stroke-linejoin="round"/>
<path d="M40.5269 21.8958C41.7683 22.2176 42.8678 22.9426 43.6527 23.9569C44.4376 24.9712 44.8635 26.2174 44.8635 27.5C44.8635 28.7825 44.4376 30.0287 43.6527 31.043C42.8678 32.0573 41.7683 32.7823 40.5269 33.1042" stroke="#176781" stroke-width="2.89474" stroke-linecap="round" stroke-linejoin="round"/>
<path d="M49.2112 47.7629V44.8682C49.2103 43.5854 48.7833 42.3393 47.9974 41.3255C47.2115 40.3116 46.1112 39.5875 44.8691 39.2668" stroke="#176781" stroke-width="2.89474" stroke-linecap="round" stroke-linejoin="round"/>
<path d="M30.3949 33.2892C33.5924 33.2892 36.1844 30.6971 36.1844 27.4997C36.1844 24.3022 33.5924 21.7102 30.3949 21.7102C27.1975 21.7102 24.6055 24.3022 24.6055 27.4997C24.6055 30.6971 27.1975 33.2892 30.3949 33.2892Z" stroke="#176781" stroke-width="2.89474" stroke-linecap="round" stroke-linejoin="round"/>
</svg>
