<svg width="71" height="71" viewBox="0 0 71 71" fill="none" xmlns="http://www.w3.org/2000/svg">
<path d="M0 17.5122C0 7.84047 7.84046 0 17.5122 0H52.5365C62.2082 0 70.0486 7.84046 70.0486 17.5122V52.5365C70.0486 62.2082 62.2082 70.0486 52.5365 70.0486H17.5122C7.84047 70.0486 0 62.2082 0 52.5365V17.5122Z" fill="#A6DCED"/>
<path d="M24.0793 41.5929C21.8903 43.4317 21.1606 48.8896 21.1606 48.8896C21.1606 48.8896 26.6186 48.16 28.4574 45.9709C29.4935 44.7451 29.4789 42.8625 28.326 41.7242C27.7588 41.1828 27.0116 40.87 26.2278 40.8458C25.4441 40.8215 24.6789 41.0876 24.0793 41.5929Z" stroke="#64748B" stroke-width="2.91869" stroke-linecap="round" stroke-linejoin="round"/>
<path d="M35.0231 39.402L30.645 35.024C31.4216 33.0093 32.3995 31.078 33.5637 29.2596C35.2641 26.5408 37.6318 24.3023 40.4416 22.7569C43.2514 21.2115 46.4099 20.4106 49.6165 20.4305C49.6165 24.4 48.4782 31.3756 40.8604 36.4834C39.0171 37.649 37.0615 38.6268 35.0231 39.402Z" stroke="#64748B" stroke-width="2.91869" stroke-linecap="round" stroke-linejoin="round"/>
<path d="M30.6449 35.0227H23.3481C23.3481 35.0227 24.1508 30.6009 26.2668 29.1853C28.631 27.6093 33.5636 29.1853 33.5636 29.1853" stroke="#64748B" stroke-width="2.91869" stroke-linecap="round" stroke-linejoin="round"/>
<path d="M35.0239 39.4036V46.7003C35.0239 46.7003 39.4457 45.8977 40.8613 43.7816C42.4374 41.4175 40.8613 36.4849 40.8613 36.4849" stroke="#64748B" stroke-width="2.91869" stroke-linecap="round" stroke-linejoin="round"/>
</svg>
