<svg width="52" height="52" viewBox="0 0 52 52" fill="none" xmlns="http://www.w3.org/2000/svg">
<rect width="51.3333" height="51.3333" rx="25.6667" fill="#F6E2FF"/>
<path d="M16.9259 23.3946C16.698 23.3946 16.4901 23.2099 16.5006 22.9685C16.562 21.555 16.7338 20.6347 17.2153 19.9068C17.4923 19.488 17.8364 19.1237 18.232 18.8305C19.3013 18.0378 20.8098 18.0378 23.8268 18.0378H27.507C30.524 18.0378 32.0325 18.0378 33.1018 18.8305C33.4974 19.1237 33.8415 19.488 34.1185 19.9068C34.6 20.6347 34.7718 21.5548 34.8332 22.9681C34.8437 23.2097 34.6355 23.3946 34.4075 23.3946C33.1371 23.3946 32.1074 24.4848 32.1074 25.8295C32.1074 27.1743 33.1371 28.2644 34.4075 28.2644C34.6355 28.2644 34.8437 28.4492 34.8332 28.691C34.7718 30.1043 34.6 31.0244 34.1185 31.7523C33.8415 32.171 33.4974 32.5353 33.1018 32.8285C32.0325 33.6212 30.524 33.6212 27.507 33.6212H23.8268C20.8098 33.6212 19.3013 33.6212 18.232 32.8285C17.8364 32.5353 17.4923 32.171 17.2153 31.7523C16.7338 31.0243 16.562 30.104 16.5006 28.6905C16.4901 28.4491 16.698 28.2644 16.9259 28.2644C18.1962 28.2644 19.226 27.1743 19.226 25.8295C19.226 24.4848 18.1962 23.3946 16.9259 23.3946Z" stroke="#AA16EF" stroke-width="1.375" stroke-linejoin="round"/>
<path d="M23.3752 28.1212L27.9586 23.5378" stroke="#AA16EF" stroke-width="1.375" stroke-linecap="round" stroke-linejoin="round"/>
<path d="M23.3752 23.5378H23.3855M27.9483 28.1212H27.9586" stroke="#AA16EF" stroke-width="1.83333" stroke-linecap="round" stroke-linejoin="round"/>
</svg>
