<svg width="71" height="71" viewBox="0 0 71 71" fill="none" xmlns="http://www.w3.org/2000/svg">
<path d="M0 17.5122C0 7.84047 7.84046 0 17.5122 0H52.5365C62.2082 0 70.0486 7.84046 70.0486 17.5122V52.5365C70.0486 62.2082 62.2082 70.0486 52.5365 70.0486H17.5122C7.84047 70.0486 0 62.2082 0 52.5365V17.5122Z" fill="#A6DCED"/>
<path d="M40.8628 46.6984V23.3489C40.8628 22.5748 40.5553 21.8324 40.0079 21.285C39.4605 20.7377 38.7182 20.4302 37.9441 20.4302H32.1067C31.3326 20.4302 30.5902 20.7377 30.0429 21.285C29.4955 21.8324 29.188 22.5748 29.188 23.3489V46.6984" stroke="#64748B" stroke-width="2.91869" stroke-linecap="round" stroke-linejoin="round"/>
<path d="M46.6984 26.2661H23.3489C21.7369 26.2661 20.4302 27.5729 20.4302 29.1848V43.7783C20.4302 45.3902 21.7369 46.697 23.3489 46.697H46.6984C48.3104 46.697 49.6171 45.3902 49.6171 43.7783V29.1848C49.6171 27.5729 48.3104 26.2661 46.6984 26.2661Z" stroke="#64748B" stroke-width="2.91869" stroke-linecap="round" stroke-linejoin="round"/>
</svg>
